<?xml version="1.0" standalone="no"?>
<!DOCTYPE svg PUBLIC "-//W3C//DTD SVG 20010904//EN"
 "http://www.w3.org/TR/2001/REC-SVG-20010904/DTD/svg10.dtd">
<svg version="1.0" xmlns="http://www.w3.org/2000/svg"
 width="300.000000pt" height="300.000000pt" viewBox="0 0 300.000000 300.000000"
 preserveAspectRatio="xMidYMid meet">
<metadata>
Created by potrace 1.10, written by Peter Selinger 2001-2011
</metadata>
<g transform="translate(0.000000,300.000000) scale(0.100000,-0.100000)"
fill="#000000" stroke="none">
<path d="M1455 2620 c-3 -5 -1 -10 4 -10 6 0 11 5 11 10 0 6 -2 10 -4 10 -3 0
-8 -4 -11 -10z"/>
<path d="M1580 2621 c0 -6 -6 -11 -13 -11 -15 0 -87 -58 -87 -70 0 -4 7 -10
14 -13 10 -4 13 -1 9 9 -6 17 8 19 25 2 8 -8 12 -9 12 -1 0 6 -6 13 -12 15 -7
3 0 13 17 24 17 10 33 23 37 29 5 6 11 6 19 -2 10 -10 6 -18 -17 -38 -16 -14
-24 -25 -18 -25 6 0 19 9 29 20 10 11 25 20 34 21 10 0 12 2 4 6 -28 11 -11
22 28 19 70 -6 159 -64 119 -78 -6 -2 -6 -8 0 -18 8 -13 10 -12 10 4 0 18 6
19 108 12 59 -5 120 -7 136 -7 16 1 38 -1 49 -5 20 -6 20 -7 -4 -20 l-24 -13
28 3 c15 2 33 8 39 14 7 7 28 11 47 11 24 -1 28 -3 14 -6 -37 -7 -26 -18 19
-20 23 0 36 2 29 7 -9 5 -8 9 5 14 9 3 26 0 38 -7 12 -7 53 -14 96 -15 41 -1
69 1 63 4 -28 12 -10 24 35 23 29 -1 36 -4 20 -6 -37 -6 -36 -23 1 -23 61 0
80 -24 87 -110 20 -243 26 -382 30 -665 2 -181 9 -357 14 -391 6 -33 10 -159
11 -280 1 -120 4 -223 7 -228 3 -5 6 -30 8 -55 2 -40 1 -42 -7 -16 -7 25 -8
23 -5 -17 2 -27 -1 -48 -6 -48 -5 0 -6 5 -3 10 3 6 4 10 0 10 -3 0 -10 -11
-15 -25 -16 -43 -30 -28 -30 33 0 80 -11 170 -61 506 -5 38 -13 76 -18 85 -5
9 -12 40 -16 69 -4 28 -11 52 -16 52 -5 0 -9 8 -9 18 0 25 -69 90 -111 104
-44 14 -597 19 -774 7 -310 -21 -527 -55 -575 -89 -48 -34 -78 -113 -94 -250
-24 -203 -27 -253 -26 -456 0 -107 -4 -194 -8 -194 -4 0 -13 9 -20 21 -8 13
-19 18 -31 14 -25 -8 -46 38 -25 55 8 7 14 20 14 28 0 13 -2 13 -13 -3 -20
-26 -28 -5 -16 39 6 21 8 45 5 53 -4 9 -1 22 5 30 7 7 9 17 5 20 -4 4 -10 2
-14 -4 -4 -7 -6 42 -4 107 2 82 -1 120 -8 120 -8 0 -9 19 -3 63 8 73 8 66 -5
271 -7 113 -14 161 -24 167 -10 7 -10 9 3 9 12 0 16 10 15 45 -1 25 -6 49 -12
53 -10 6 -28 359 -29 566 l0 70 60 3 c152 7 213 13 255 22 25 5 76 11 114 13
l69 3 3 -40 c2 -22 8 -161 14 -309 8 -195 8 -272 0 -280 -6 -6 -44 -12 -85
-14 -41 -2 -72 -8 -69 -13 7 -13 87 -11 141 3 l46 11 -7 220 c-4 121 -9 224
-12 229 -3 5 -6 47 -6 93 0 89 11 115 49 115 11 0 24 5 30 11 8 8 13 8 17 0 9
-14 42 -14 69 1 12 6 41 10 65 9 30 -2 42 1 40 10 -2 7 2 13 9 14 27 1 23 15
-5 15 -17 0 -34 -4 -37 -10 -3 -5 -19 -7 -35 -3 -16 3 -37 2 -47 -2 -17 -7
-17 -8 2 -15 13 -6 -3 -8 -46 -8 -36 1 -71 -2 -78 -7 -8 -4 -75 -10 -150 -12
-75 -3 -139 -10 -142 -15 -4 -7 -9 -6 -13 1 -5 8 -13 8 -26 1 -20 -10 -199
-29 -219 -22 -20 7 -1 86 26 109 14 13 30 20 34 17 5 -3 9 2 9 12 0 15 8 16
68 10 37 -3 79 -9 95 -12 17 -4 27 -2 27 6 0 7 -8 9 -19 5 -11 -3 -22 -2 -25
3 -6 10 58 17 127 14 36 -1 46 1 42 11 -4 6 0 4 7 -5 21 -25 81 -33 97 -14 14
17 1 22 -15 6 -10 -10 -54 -2 -54 10 0 4 30 11 68 14 37 4 78 8 92 10 14 1 58
6 98 11 39 4 72 12 72 17 0 11 -209 0 -225 -12 -5 -4 -55 -10 -110 -13 -112
-6 -319 -25 -351 -32 -30 -7 -90 -66 -97 -96 -4 -14 -2 -127 3 -250 5 -123 12
-289 15 -369 5 -130 15 -283 21 -302 1 -5 2 -71 3 -149 0 -77 5 -138 9 -135 4
2 7 -26 7 -62 0 -168 16 -474 26 -495 18 -35 51 -67 69 -67 9 0 20 -3 24 -7
11 -11 40 -13 52 -2 8 7 13 6 16 -2 2 -7 12 -9 26 -5 12 4 20 11 17 16 -3 5 1
10 7 13 7 3 3 4 -9 4 -13 -1 -23 -5 -23 -9 0 -4 -5 -8 -10 -8 -6 0 -8 10 -4
24 3 13 1 27 -5 30 -7 5 -11 -4 -11 -23 0 -17 -4 -31 -10 -31 -12 0 -12 350 0
490 15 173 33 300 41 300 5 0 9 10 9 23 1 43 61 96 123 108 46 10 191 30 222
31 11 0 52 4 90 9 211 26 781 37 895 18 102 -17 142 -54 166 -154 9 -38 20
-79 25 -90 16 -42 56 -320 70 -493 10 -122 10 -145 -2 -153 -8 -4 -18 -4 -23
1 -5 5 -19 4 -34 -1 -14 -6 -50 -7 -80 -3 -42 5 -53 4 -47 -6 4 -6 16 -10 26
-7 10 3 22 1 25 -4 6 -11 134 -12 134 -1 0 4 15 9 33 10 20 2 41 13 57 30 l25
27 -1 260 c-1 143 -7 332 -13 420 -6 88 -13 270 -17 405 -3 135 -8 261 -10
280 -3 19 -9 117 -14 218 -9 177 -10 184 -37 222 -19 26 -38 42 -58 45 -16 3
-124 8 -240 11 -381 9 -475 14 -475 27 0 7 -19 23 -42 37 -32 19 -60 26 -110
29 -45 2 -68 -1 -68 -8z m750 -115 c0 -2 -7 -7 -16 -10 -8 -3 -12 -2 -9 4 6
10 25 14 25 6z m70 -10 c-4 -4 -16 -4 -26 2 -16 9 -14 10 8 9 15 -1 23 -6 18
-11z"/>
<path d="M1711 2575 c-1 -15 20 -35 36 -35 7 0 13 5 13 10 0 6 -9 10 -19 10
-11 0 -22 6 -24 13 -3 6 -6 7 -6 2z"/>
<path d="M2498 2573 c7 -3 16 -2 19 1 4 3 -2 6 -13 5 -11 0 -14 -3 -6 -6z"/>
<path d="M1633 2560 c-28 -11 -30 -30 -4 -37 12 -3 17 -11 14 -19 -7 -19 12
-18 31 1 8 8 23 15 33 15 15 1 13 5 -10 25 -31 27 -32 28 -64 15z m47 -26 c0
-9 -7 -14 -17 -12 -25 5 -28 28 -4 28 12 0 21 -6 21 -16z"/>
<path d="M1735 2510 c3 -5 10 -10 16 -10 5 0 9 5 9 10 0 6 -7 10 -16 10 -8 0
-12 -4 -9 -10z"/>
<path d="M1574 2491 c21 -23 26 -26 26 -11 0 5 -10 15 -22 21 -23 12 -23 12
-4 -10z"/>
<path d="M748 2493 c7 -3 16 -2 19 1 4 3 -2 6 -13 5 -11 0 -14 -3 -6 -6z"/>
<path d="M2126 2492 c-2 -4 -1 -14 3 -21 6 -10 10 -9 14 3 6 16 -8 32 -17 18z"/>
<path d="M2258 2483 c7 -3 16 -2 19 1 4 3 -2 6 -13 5 -11 0 -14 -3 -6 -6z"/>
<path d="M1293 2463 c15 -2 37 -2 50 0 12 2 0 4 -28 4 -27 0 -38 -2 -22 -4z"/>
<path d="M1675 2461 c-6 -11 9 -23 19 -14 9 9 7 23 -3 23 -6 0 -12 -4 -16 -9z"/>
<path d="M1040 2450 c0 -5 7 -10 16 -10 8 0 12 5 9 10 -3 6 -10 10 -16 10 -5
0 -9 -4 -9 -10z"/>
<path d="M1620 2450 c0 -5 7 -10 16 -10 8 0 12 5 9 10 -3 6 -10 10 -16 10 -5
0 -9 -4 -9 -10z"/>
<path d="M1760 2451 c0 -5 -12 -12 -27 -14 -16 -2 24 -4 87 -4 101 -1 108 0
61 8 -30 5 -57 11 -59 14 -3 3 -12 -1 -20 -8 -12 -9 -16 -9 -19 1 -5 14 -23
16 -23 3z"/>
<path d="M1008 2443 c7 -3 16 -2 19 1 4 3 -2 6 -13 5 -11 0 -14 -3 -6 -6z"/>
<path d="M1535 2440 c-17 -7 -15 -9 12 -9 18 -1 36 -8 41 -16 6 -12 30 -17 90
-20 49 -3 82 -1 82 5 0 5 -10 10 -22 10 -13 0 -47 0 -75 0 -29 0 -53 4 -53 9
0 5 -8 11 -17 15 -10 3 -22 8 -28 10 -5 3 -19 1 -30 -4z"/>
<path d="M800 2424 c0 -13 3 -14 14 -5 8 7 25 9 39 6 14 -4 28 -2 31 4 5 7 -8
11 -38 11 -36 0 -46 -4 -46 -16z"/>
<path d="M1465 2433 c-36 -9 -41 -23 -8 -23 17 0 36 7 43 15 13 16 6 18 -35 8z"/>
<path d="M1186 2421 c-5 -8 -2 -20 8 -29 17 -17 19 -9 7 22 -6 15 -10 16 -15
7z"/>
<path d="M2030 2413 c-13 -15 -13 -16 2 -11 8 4 21 1 27 -5 12 -12 14 -7 5 17
-8 20 -15 20 -34 -1z"/>
<path d="M1380 2410 c-12 -8 -9 -9 12 -8 15 1 24 6 22 10 -7 10 -16 10 -34 -2z"/>
<path d="M1550 2400 c0 -5 5 -10 11 -10 5 0 7 5 4 10 -3 6 -8 10 -11 10 -2 0
-4 -4 -4 -10z"/>
<path d="M1780 2398 c0 -3 44 -9 98 -13 53 -4 105 -9 115 -11 9 -3 17 -1 17 5
0 6 -12 11 -27 12 -16 0 -67 4 -115 7 -49 4 -88 4 -88 0z"/>
<path d="M1250 2379 c0 -11 5 -17 10 -14 6 3 10 13 10 21 0 8 -4 14 -10 14 -5
0 -10 -9 -10 -21z"/>
<path d="M1745 2370 c3 -5 10 -10 16 -10 5 0 9 5 9 10 0 6 -7 10 -16 10 -8 0
-12 -4 -9 -10z"/>
<path d="M1785 2370 c4 -6 17 -9 30 -7 40 5 41 17 1 17 -23 0 -35 -4 -31 -10z"/>
<path d="M2031 2371 c-22 -14 47 -23 204 -26 83 -1 155 -4 160 -5 6 -1 42 -2
81 -1 54 1 73 5 78 16 5 14 -24 15 -244 15 -138 -1 -254 1 -258 4 -4 2 -14 1
-21 -3z"/>
<path d="M1695 2350 c4 -6 11 -8 16 -5 14 9 11 15 -7 15 -8 0 -12 -5 -9 -10z"/>
<path d="M1898 2353 c18 -2 45 -2 60 0 15 2 0 4 -33 4 -33 0 -45 -2 -27 -4z"/>
<path d="M2661 2344 c0 -11 3 -14 6 -6 3 7 2 16 -1 19 -3 4 -6 -2 -5 -13z"/>
<path d="M2025 2340 c4 -6 11 -8 16 -5 14 9 11 15 -7 15 -8 0 -12 -5 -9 -10z"/>
<path d="M1543 2324 c-3 -8 -1 -20 6 -27 8 -8 11 -4 11 16 0 30 -7 35 -17 11z"/>
<path d="M1778 2323 c7 -3 16 -2 19 1 4 3 -2 6 -13 5 -11 0 -14 -3 -6 -6z"/>
<path d="M1930 2319 c0 -5 5 -7 10 -4 6 3 10 8 10 11 0 2 -4 4 -10 4 -5 0 -10
-5 -10 -11z"/>
<path d="M2054 2319 c-10 -17 13 -36 27 -22 12 12 4 33 -11 33 -5 0 -12 -5
-16 -11z"/>
<path d="M2119 2319 c16 -6 28 -6 35 1 7 7 -1 10 -24 9 -33 0 -34 -1 -11 -10z"/>
<path d="M1295 2310 c-3 -5 -1 -10 4 -10 6 0 11 5 11 10 0 6 -2 10 -4 10 -3 0
-8 -4 -11 -10z"/>
<path d="M1700 2310 c0 -5 5 -10 11 -10 5 0 7 5 4 10 -3 6 -8 10 -11 10 -2 0
-4 -4 -4 -10z"/>
<path d="M2021 2294 c0 -11 3 -14 6 -6 3 7 2 16 -1 19 -3 4 -6 -2 -5 -13z"/>
<path d="M2510 2300 c-4 -25 1 -64 9 -75 5 -5 9 -57 10 -115 1 -58 4 -164 7
-237 l5 -132 -36 -7 c-19 -3 -101 -5 -181 -2 -81 2 -136 0 -123 -3 21 -6 20
-7 -9 -8 -38 -1 -39 1 -57 106 l-13 78 -1 -56 c-1 -31 2 -78 5 -104 l7 -47
106 6 c58 4 159 7 224 9 64 1 117 5 117 9 0 5 -4 8 -9 8 -5 0 -9 10 -9 23 -3
235 -17 516 -25 514 -6 -1 -14 9 -18 23 -4 14 -8 18 -9 10z"/>
<path d="M2531 2294 c0 -11 3 -14 6 -6 3 7 2 16 -1 19 -3 4 -6 -2 -5 -13z"/>
<path d="M1176 2284 c-11 -8 -16 -14 -10 -14 13 0 39 18 34 24 -3 2 -14 -2
-24 -10z"/>
<path d="M1930 2291 c0 -16 12 -41 20 -41 4 0 5 11 2 25 -4 23 -22 36 -22 16z"/>
<path d="M2103 2213 c3 -48 10 -106 15 -128 9 -38 10 -39 12 -10 1 17 1 35 0
40 -8 36 -8 150 0 155 5 3 0 11 -11 19 -21 12 -21 11 -16 -76z"/>
<path d="M1650 2249 c0 -5 5 -7 10 -4 6 3 10 8 10 11 0 2 -4 4 -10 4 -5 0 -10
-5 -10 -11z"/>
<path d="M759 2228 c-6 -37 2 -188 10 -188 9 0 17 110 13 183 -2 33 -18 36
-23 5z"/>
<path d="M1940 2205 c0 -14 4 -25 8 -25 4 0 9 11 10 25 1 14 -3 25 -8 25 -6 0
-10 -11 -10 -25z"/>
<path d="M2072 2190 c0 -19 2 -27 5 -17 2 9 2 25 0 35 -3 9 -5 1 -5 -18z"/>
<path d="M1715 2190 c3 -5 8 -10 11 -10 2 0 4 5 4 10 0 6 -5 10 -11 10 -5 0
-7 -4 -4 -10z"/>
<path d="M1580 2170 c0 -5 5 -10 11 -10 5 0 7 5 4 10 -3 6 -8 10 -11 10 -2 0
-4 -4 -4 -10z"/>
<path d="M1650 2169 c0 -5 5 -7 10 -4 6 3 10 8 10 11 0 2 -4 4 -10 4 -5 0 -10
-5 -10 -11z"/>
<path d="M2076 2078 c3 -40 10 -136 14 -213 l7 -140 -2 185 c-4 232 -3 228
-16 235 -7 5 -8 -17 -3 -67z"/>
<path d="M1953 2105 c0 -22 2 -30 4 -17 2 12 2 30 0 40 -3 9 -5 -1 -4 -23z"/>
<path d="M1340 2100 c0 -5 5 -10 10 -10 6 0 10 5 10 10 0 6 -4 10 -10 10 -5 0
-10 -4 -10 -10z"/>
<path d="M1193 2015 c0 -22 2 -30 4 -17 2 12 2 30 0 40 -3 9 -5 -1 -4 -23z"/>
<path d="M2122 2020 c0 -14 2 -19 5 -12 2 6 2 18 0 25 -3 6 -5 1 -5 -13z"/>
<path d="M768 1965 c-1 -36 0 -65 5 -65 4 0 7 -61 7 -136 0 -120 2 -135 16
-130 9 3 18 6 21 6 3 0 1 6 -5 13 -8 10 -23 246 -22 365 0 6 -4 12 -9 12 -5 0
-11 -29 -13 -65z"/>
<path d="M1352 2011 c2 -7 7 -12 11 -12 12 1 9 15 -3 20 -7 2 -11 -2 -8 -8z"/>
<path d="M1962 1955 c0 -16 2 -22 5 -12 2 9 2 23 0 30 -3 6 -5 -1 -5 -18z"/>
<path d="M1355 1910 c-3 -5 -1 -10 4 -10 6 0 11 5 11 10 0 6 -2 10 -4 10 -3 0
-8 -4 -11 -10z"/>
<path d="M1975 1890 c-3 -5 1 -10 10 -10 9 0 13 5 10 10 -3 6 -8 10 -10 10 -2
0 -7 -4 -10 -10z"/>
<path d="M1190 1868 c0 -19 2 -20 10 -8 13 19 13 30 0 30 -5 0 -10 -10 -10
-22z"/>
<path d="M1531 1833 c1 -62 6 -56 11 15 2 23 0 42 -4 42 -5 0 -7 -26 -7 -57z"/>
<path d="M1757 1814 c0 -41 4 -78 7 -81 3 -4 6 -2 6 3 5 92 3 154 -5 154 -6 0
-9 -31 -8 -76z"/>
<path d="M1980 1768 c0 -4 7 -8 15 -8 8 0 15 4 15 8 0 5 -7 9 -15 9 -8 0 -15
-4 -15 -9z"/>
<path d="M1206 1761 c-4 -7 -5 -15 -2 -18 9 -9 19 4 14 18 -4 11 -6 11 -12 0z"/>
<path d="M1376 1761 c-4 -5 -2 -20 4 -33 8 -21 9 -20 7 10 -1 34 -3 37 -11 23z"/>
<path d="M1575 1761 c-3 -5 -1 -12 5 -16 5 -3 10 1 10 9 0 18 -6 21 -15 7z"/>
<path d="M1702 1745 c0 -16 2 -22 5 -12 2 9 2 23 0 30 -3 6 -5 -1 -5 -18z"/>
<path d="M1320 1740 c0 -5 5 -10 10 -10 6 0 10 5 10 10 0 6 -4 10 -10 10 -5 0
-10 -4 -10 -10z"/>
<path d="M1980 1739 c0 -5 9 -9 20 -9 11 0 20 2 20 4 0 2 -9 6 -20 9 -11 3
-20 1 -20 -4z"/>
<path d="M1540 1730 c0 -5 5 -10 10 -10 6 0 10 5 10 10 0 6 -4 10 -10 10 -5 0
-10 -4 -10 -10z"/>
<path d="M1190 1710 c0 -5 4 -10 9 -10 6 0 13 5 16 10 3 6 -1 10 -9 10 -9 0
-16 -4 -16 -10z"/>
<path d="M2095 1709 c-10 -15 3 -25 16 -12 7 7 7 13 1 17 -6 3 -14 1 -17 -5z"/>
<path d="M1318 1703 c7 -3 16 -2 19 1 4 3 -2 6 -13 5 -11 0 -14 -3 -6 -6z"/>
<path d="M1848 1703 c23 -2 61 -2 85 0 23 2 4 4 -43 4 -47 0 -66 -2 -42 -4z"/>
<path d="M2030 1694 c14 -10 30 -23 36 -31 10 -11 13 -11 24 2 8 9 9 15 4 14
-22 -4 -33 2 -28 16 5 11 -2 15 -27 15 l-33 0 24 -16z"/>
<path d="M1523 1693 c-13 -2 -23 -8 -23 -13 0 -4 -29 -5 -64 -3 -40 4 -66 2
-70 -5 -5 -8 10 -10 49 -6 35 3 55 1 55 -5 0 -6 -23 -11 -52 -11 -36 -1 -48
-3 -38 -10 9 -4 31 -7 50 -6 19 2 45 4 58 5 16 1 22 6 20 18 -2 11 5 19 17 21
11 2 24 8 30 13 9 9 7 10 -32 2z"/>
<path d="M1625 1681 c-38 -4 -79 -13 -90 -19 -17 -11 -8 -12 52 -9 40 2 70 0
67 -4 -2 -4 8 -5 23 -2 16 3 38 6 50 6 15 -1 21 5 20 18 -1 22 -13 25 -21 7
-5 -10 -7 -10 -12 0 -3 6 -9 11 -12 11 -4 -1 -38 -5 -77 -8z"/>
<path d="M1804 1671 c-23 -23 24 -25 199 -8 9 1 17 5 17 9 0 8 -208 7 -216 -1z"/>
<path d="M2193 1673 c9 -2 23 -2 30 0 6 3 -1 5 -18 5 -16 0 -22 -2 -12 -5z"/>
<path d="M1290 1656 c0 -8 5 -18 10 -21 6 -3 10 -1 10 4 0 6 9 11 20 11 11 0
20 5 20 10 0 6 -13 10 -30 10 -19 0 -30 -5 -30 -14z"/>
<path d="M1760 1660 c0 -5 7 -10 15 -10 8 0 15 5 15 10 0 6 -7 10 -15 10 -8 0
-15 -4 -15 -10z"/>
<path d="M858 1643 c12 -2 30 -2 40 0 9 3 -1 5 -23 4 -22 0 -30 -2 -17 -4z"/>
<path d="M2345 1630 c-3 -5 -2 -10 4 -10 5 0 13 5 16 10 3 6 2 10 -4 10 -5 0
-13 -4 -16 -10z"/>
<path d="M2021 1611 c-7 -5 -52 -9 -100 -11 -47 -1 -97 -3 -111 -4 -14 -2
-123 -4 -242 -4 -191 -2 -217 -4 -212 -17 4 -9 14 -13 23 -11 9 3 147 8 306
11 319 6 365 10 365 31 0 16 -9 18 -29 5z"/>
<path d="M2283 1613 c9 -2 23 -2 30 0 6 3 -1 5 -18 5 -16 0 -22 -2 -12 -5z"/>
<path d="M2283 1573 c9 -2 25 -2 35 0 9 3 1 5 -18 5 -19 0 -27 -2 -17 -5z"/>
<path d="M1208 1533 c12 -2 30 -2 40 0 9 3 -1 5 -23 4 -22 0 -30 -2 -17 -4z"/>
<path d="M2426 1517 c3 -10 9 -15 12 -12 3 3 0 11 -7 18 -10 9 -11 8 -5 -6z"/>
<path d="M2470 1499 c0 -5 5 -7 10 -4 6 3 10 8 10 11 0 2 -4 4 -10 4 -5 0 -10
-5 -10 -11z"/>
<path d="M1620 1469 c0 -5 5 -7 10 -4 6 3 10 8 10 11 0 2 -4 4 -10 4 -5 0 -10
-5 -10 -11z"/>
<path d="M1680 1470 c0 -5 -7 -10 -15 -10 -20 0 -34 -30 -28 -63 11 -55 82
-76 120 -34 26 28 23 62 -6 93 -23 24 -71 33 -71 14z m62 -37 c28 -24 -4 -72
-47 -72 -20 0 -20 0 0 15 22 16 29 54 11 54 -16 0 -44 -20 -28 -20 6 0 12 -7
12 -15 0 -22 -28 -18 -35 5 -5 15 0 26 16 39 24 20 42 18 71 -6z m-34 -38 c-3
-3 -9 2 -12 12 -6 14 -5 15 5 6 7 -7 10 -15 7 -18z"/>
<path d="M2321 1464 c0 -11 3 -14 6 -6 3 7 2 16 -1 19 -3 4 -6 -2 -5 -13z"/>
<path d="M2511 1466 c-7 -8 -8 -17 -3 -20 6 -3 12 3 15 14 6 24 4 25 -12 6z"/>
<path d="M2357 1463 c-12 -12 -7 -22 8 -17 8 4 15 2 15 -2 0 -5 9 -20 20 -34
13 -17 20 -20 20 -10 0 14 -42 70 -52 70 -3 0 -8 -3 -11 -7z"/>
<path d="M1796 1423 c5 -42 14 -57 14 -25 0 16 6 22 21 22 18 0 19 -2 9 -15
-10 -13 -9 -15 9 -15 11 0 21 4 21 9 0 5 3 16 6 25 5 13 -1 16 -30 16 -20 0
-36 5 -36 10 0 6 -4 10 -9 10 -5 0 -7 -17 -5 -37z"/>
<path d="M1163 1443 c7 -7 118 -5 126 2 2 3 -26 5 -64 5 -38 0 -65 -3 -62 -7z"/>
<path d="M1500 1429 c0 -5 5 -7 10 -4 6 3 10 8 10 11 0 2 -4 4 -10 4 -5 0 -10
-5 -10 -11z"/>
<path d="M1551 1427 c-6 -8 -8 -22 -5 -31 6 -15 7 -15 19 1 11 15 15 16 31 3
13 -11 16 -12 10 -1 -5 8 -3 16 5 22 7 4 10 11 6 15 -3 4 -13 2 -20 -4 -9 -8
-17 -8 -24 -1 -7 7 -14 5 -22 -4z"/>
<path d="M1060 1421 c-8 -6 -18 -7 -22 -5 -18 11 -63 -58 -54 -82 3 -8 1 -14
-4 -14 -6 0 -10 -7 -10 -16 0 -14 3 -14 15 -4 8 7 15 28 15 46 0 34 13 45 24
22 3 -7 3 -2 0 11 -5 19 -3 23 9 18 9 -3 26 3 39 13 23 20 15 27 -12 11z"/>
<path d="M2555 1420 c3 -5 8 -10 11 -10 2 0 4 5 4 10 0 6 -5 10 -11 10 -5 0
-7 -4 -4 -10z"/>
<path d="M1503 1391 c1 -14 9 -26 17 -28 10 -3 11 -2 4 4 -7 4 -14 17 -17 28
-5 16 -5 15 -4 -4z"/>
<path d="M1450 1391 c0 -6 5 -13 10 -16 6 -3 10 1 10 9 0 9 -4 16 -10 16 -5 0
-10 -4 -10 -9z"/>
<path d="M2975 1371 c-3 -5 -1 -12 5 -16 5 -3 10 1 10 9 0 18 -6 21 -15 7z"/>
<path d="M1560 1351 c0 -6 5 -11 11 -11 6 0 9 -6 6 -14 -3 -8 0 -17 7 -19 9
-4 12 1 9 13 -6 23 -33 48 -33 31z"/>
<path d="M1610 1344 c0 -8 5 -12 10 -9 6 3 10 10 10 16 0 5 -4 9 -10 9 -5 0
-10 -7 -10 -16z"/>
<path d="M2420 1344 c0 -5 7 -18 15 -28 12 -16 15 -17 15 -4 0 8 -7 21 -15 28
-8 7 -15 9 -15 4z"/>
<path d="M1017 1321 c-4 -17 -3 -21 5 -13 5 5 8 16 6 23 -3 8 -7 3 -11 -10z"/>
<path d="M1636 1325 c-11 -8 -15 -15 -9 -15 6 0 16 7 23 15 16 19 11 19 -14 0z"/>
<path d="M1750 1322 c0 -7 -14 -12 -32 -12 -25 0 -29 -3 -18 -10 19 -12 41
-12 60 0 12 7 12 12 2 22 -9 9 -12 9 -12 0z"/>
<path d="M1647 1296 c-4 -10 -1 -13 9 -9 15 6 19 23 5 23 -5 0 -11 -7 -14 -14z"/>
<path d="M2434 1260 c3 -14 6 -31 6 -37 0 -7 5 -13 10 -13 15 0 12 34 -6 56
-15 18 -15 18 -10 -6z"/>
<path d="M967 1245 c-10 -26 -21 -141 -13 -134 4 4 8 21 11 38 2 18 9 39 15
46 8 10 9 23 3 42 -8 24 -10 25 -16 8z"/>
<path d="M691 1174 c0 -11 3 -14 6 -6 3 7 2 16 -1 19 -3 4 -6 -2 -5 -13z"/>
<path d="M2456 1171 c-3 -4 1 -17 9 -27 8 -10 15 -14 15 -7 0 6 -5 15 -10 18
-6 4 -8 11 -5 16 4 5 4 9 1 9 -3 0 -7 -4 -10 -9z"/>
<path d="M2977 1123 c-3 -5 -1 -17 4 -28 7 -17 8 -17 8 8 1 27 -4 34 -12 20z"/>
<path d="M2470 1103 c0 -12 5 -25 11 -28 6 -4 8 -12 6 -19 -2 -6 0 -20 5 -31
5 -13 7 -3 3 30 -5 50 -25 88 -25 48z"/>
<path d="M605 1100 c-3 -5 -1 -10 4 -10 6 0 11 5 11 10 0 6 -2 10 -4 10 -3 0
-8 -4 -11 -10z"/>
<path d="M932 1080 c0 -14 2 -19 5 -12 2 6 2 18 0 25 -3 6 -5 1 -5 -13z"/>
<path d="M930 962 c0 -33 -2 -115 -5 -183 -3 -84 -2 -115 4 -96 10 29 15 337
6 337 -3 0 -5 -26 -5 -58z"/>
<path d="M2580 969 c0 -5 5 -7 10 -4 6 3 10 8 10 11 0 2 -4 4 -10 4 -5 0 -10
-5 -10 -11z"/>
<path d="M2496 944 c-4 -14 -5 -29 -2 -31 3 -3 8 7 12 21 3 15 4 29 1 32 -2 3
-8 -7 -11 -22z"/>
<path d="M2505 865 c4 -11 11 -33 16 -50 8 -27 8 -26 4 9 -2 22 -10 44 -16 50
-9 8 -10 6 -4 -9z"/>
<path d="M2491 794 c0 -11 3 -14 6 -6 3 7 2 16 -1 19 -3 4 -6 -2 -5 -13z"/>
<path d="M1405 779 c-4 -6 -14 -8 -23 -4 -15 6 -52 -25 -52 -44 0 -5 -6 -12
-12 -15 -7 -3 -2 -3 11 0 16 4 21 3 16 -5 -4 -7 -2 -18 5 -26 7 -9 8 -15 0
-20 -5 -3 -10 -3 -11 2 0 4 -5 -5 -10 -21 -10 -35 -5 -44 14 -25 26 27 44 99
25 99 -4 0 -8 4 -8 9 0 9 77 41 101 41 24 0 93 -36 82 -43 -5 -3 -8 -20 -5
-36 3 -22 0 -33 -12 -37 -23 -9 -20 -24 5 -24 11 0 17 -4 14 -10 -3 -5 -48
-10 -98 -10 -77 0 -95 -3 -108 -18 -27 -32 -31 -42 -15 -42 9 0 16 7 16 15 0
9 9 15 22 15 20 0 21 -1 3 -20 -10 -11 -13 -20 -7 -20 6 0 18 10 26 22 14 20
21 21 96 15 49 -4 80 -3 80 3 0 6 5 10 11 10 5 0 7 -4 4 -10 -3 -5 -1 -10 4
-10 15 0 14 8 -8 39 -21 29 -18 86 4 77 8 -3 10 4 7 20 -3 17 0 24 11 24 9 0
19 9 22 20 3 11 14 20 23 20 15 0 15 2 2 10 -11 7 -17 5 -23 -8 -10 -21 -55
-44 -63 -31 -3 5 -2 13 1 19 4 6 -1 7 -11 3 -11 -4 -15 -3 -11 4 5 7 0 9 -13
6 -11 -3 -20 0 -20 6 0 14 -87 15 -95 0z m150 -188 c-8 -13 -35 -15 -35 -2 0
5 8 11 18 13 21 5 26 2 17 -11z"/>
<path d="M1670 780 c0 -5 5 -10 11 -10 5 0 7 5 4 10 -3 6 -8 10 -11 10 -2 0
-4 -4 -4 -10z"/>
<path d="M1753 773 c-7 -3 -13 -11 -13 -19 0 -8 -5 -14 -11 -14 -6 0 -9 7 -5
15 6 17 -5 20 -19 6 -6 -5 -25 -12 -44 -15 -45 -6 -55 -18 -53 -66 1 -29 -2
-40 -11 -38 -7 2 -13 -1 -14 -7 -1 -15 36 -59 44 -52 3 4 -2 16 -12 27 -15 16
-15 20 -3 20 8 0 24 -12 37 -26 24 -28 44 -27 49 2 3 17 2 17 -10 3 -11 -14
-15 -14 -26 -3 -20 22 -14 27 23 21 19 -3 37 -1 41 4 4 7 10 7 18 0 7 -6 17
-6 26 -1 8 5 19 5 25 1 5 -5 25 -6 43 -4 26 4 32 10 32 29 0 13 5 24 10 24 6
0 10 -12 10 -26 0 -24 3 -26 28 -19 15 3 56 6 91 6 35 0 71 4 80 9 12 7 5 9
-26 10 l-42 0 15 28 c7 15 14 35 14 45 0 11 9 21 21 24 15 4 17 8 8 14 -7 4
-21 3 -30 -2 -23 -12 -149 -18 -149 -7 0 5 -6 6 -12 1 -7 -4 -34 -6 -60 -5
l-47 3 5 -33 c6 -34 -9 -88 -24 -88 -5 0 -13 17 -19 38 l-10 37 -2 -37 c0 -21
-6 -38 -12 -38 -7 0 -9 11 -6 30 4 16 2 32 -3 35 -6 4 -10 -9 -10 -29 0 -26
-4 -36 -16 -36 -13 0 -15 7 -10 35 5 27 4 35 -8 35 -18 0 -29 -31 -20 -55 5
-13 3 -16 -7 -13 -18 6 -24 55 -8 74 8 10 26 13 60 10 43 -3 50 -1 64 21 18
27 17 33 -2 26z m80 -53 c-1 -8 -5 -25 -9 -37 -4 -14 -2 -23 4 -23 6 0 14 15
17 33 10 45 17 54 26 31 7 -17 8 -17 8 -1 1 20 17 23 25 5 5 -10 7 -10 12 0
11 23 33 12 50 -23 16 -34 12 -64 -5 -37 -6 10 -10 10 -20 -2 -14 -17 -41 -11
-41 10 0 23 -30 16 -40 -10 -7 -18 -14 -22 -34 -19 -23 5 -25 9 -23 49 2 34 6
44 17 41 8 -1 14 -9 13 -17z m168 3 c1 -17 2 -17 6 0 2 9 10 17 18 17 10 0 10
-7 0 -37 -15 -44 -30 -52 -39 -21 -9 34 -7 58 4 58 6 0 11 -8 11 -17z"/>
<path d="M1921 699 c-11 -19 -11 -21 4 -15 9 3 19 6 21 6 2 0 4 7 4 15 0 21
-13 19 -29 -6z"/>
<path d="M2118 743 c7 -3 16 -2 19 1 4 3 -2 6 -13 5 -11 0 -14 -3 -6 -6z"/>
<path d="M1760 721 c0 -11 5 -23 10 -26 6 -4 10 5 10 19 0 14 -4 26 -10 26 -5
0 -10 -9 -10 -19z"/>
<path d="M2075 725 c-3 -8 -7 -22 -10 -30 -6 -20 21 -19 29 1 9 24 7 44 -4 44
-6 0 -13 -7 -15 -15z"/>
<path d="M1390 715 c0 -8 5 -15 10 -15 6 0 10 7 10 15 0 8 -4 15 -10 15 -5 0
-10 -7 -10 -15z"/>
<path d="M1430 723 c0 -3 7 -11 15 -19 13 -14 17 -14 30 0 21 20 19 23 -15 23
-16 0 -30 -2 -30 -4z"/>
<path d="M1493 694 c-17 -18 -16 -34 1 -34 16 0 27 22 18 37 -5 7 -11 6 -19
-3z"/>
<path d="M2115 701 c-3 -5 -1 -12 5 -16 5 -3 10 1 10 9 0 18 -6 21 -15 7z"/>
<path d="M1414 664 c6 -22 4 -25 -13 -19 -11 3 -22 1 -26 -5 -5 -8 4 -10 26
-8 29 2 35 7 37 31 3 20 -1 27 -13 27 -13 0 -16 -6 -11 -26z"/>
<path d="M2150 670 c0 -5 5 -10 10 -10 6 0 10 5 10 10 0 6 -4 10 -10 10 -5 0
-10 -4 -10 -10z"/>
<path d="M1450 645 c0 -8 5 -15 10 -15 6 0 10 7 10 15 0 8 -4 15 -10 15 -5 0
-10 -7 -10 -15z"/>
<path d="M2531 644 c0 -11 3 -14 6 -6 3 7 2 16 -1 19 -3 4 -6 -2 -5 -13z"/>
<path d="M920 636 c0 -9 5 -16 10 -16 6 0 10 4 10 9 0 6 -4 13 -10 16 -5 3
-10 -1 -10 -9z"/>
<path d="M805 621 c-3 -5 -1 -12 5 -16 5 -3 10 1 10 9 0 18 -6 21 -15 7z"/>
<path d="M2300 616 c0 -9 7 -12 20 -9 11 3 17 9 14 14 -8 14 -34 10 -34 -5z"/>
<path d="M1727 613 c-4 -3 -7 -11 -7 -17 0 -6 5 -5 12 2 6 6 9 14 7 17 -3 3
-9 2 -12 -2z"/>
<path d="M1772 608 c-15 -15 -15 -25 1 -31 7 -3 13 5 13 19 2 28 2 28 -14 12z"/>
<path d="M1833 604 c-20 -21 -16 -42 3 -22 9 9 15 21 13 26 -2 6 -9 4 -16 -4z"/>
<path d="M1880 610 c0 -5 5 -10 11 -10 5 0 7 5 4 10 -3 6 -8 10 -11 10 -2 0
-4 -4 -4 -10z"/>
<path d="M2010 610 c0 -5 7 -10 15 -10 8 0 15 5 15 10 0 6 -7 10 -15 10 -8 0
-15 -4 -15 -10z"/>
<path d="M711 594 c0 -11 3 -14 6 -6 3 7 2 16 -1 19 -3 4 -6 -2 -5 -13z"/>
<path d="M2066 603 c-11 -11 -6 -23 9 -23 8 0 15 4 15 9 0 13 -16 22 -24 14z"/>
<path d="M1920 583 c-24 -12 -24 -13 -3 -13 12 0 25 5 28 11 11 16 2 17 -25 2z"/>
<path d="M1640 570 c0 -5 5 -10 11 -10 5 0 7 5 4 10 -3 6 -8 10 -11 10 -2 0
-4 -4 -4 -10z"/>
<path d="M1730 569 c0 -5 5 -7 10 -4 6 3 10 8 10 11 0 2 -4 4 -10 4 -5 0 -10
-5 -10 -11z"/>
<path d="M2560 565 c0 -8 5 -15 10 -15 6 0 10 7 10 15 0 8 -4 15 -10 15 -5 0
-10 -7 -10 -15z"/>
<path d="M740 561 c0 -5 -8 -12 -17 -14 -15 -4 -15 -5 -2 -6 9 0 22 6 29 14 9
10 9 15 1 15 -6 0 -11 -4 -11 -9z"/>
<path d="M1417 563 c-13 -13 -7 -21 13 -16 11 3 20 9 20 14 0 10 -24 12 -33 2z"/>
<path d="M1470 561 c0 -5 9 -11 19 -14 14 -3 18 -1 14 9 -6 15 -33 19 -33 5z"/>
<path d="M2610 559 c0 -5 5 -7 10 -4 6 3 10 8 10 11 0 2 -4 4 -10 4 -5 0 -10
-5 -10 -11z"/>
<path d="M1068 543 c6 -2 18 -2 25 0 6 3 1 5 -13 5 -14 0 -19 -2 -12 -5z"/>
<path d="M1118 543 c7 -3 16 -2 19 1 4 3 -2 6 -13 5 -11 0 -14 -3 -6 -6z"/>
<path d="M850 490 c0 -5 5 -10 10 -10 6 0 10 5 10 10 0 6 -4 10 -10 10 -5 0
-10 -4 -10 -10z"/>
</g>
</svg>
