<?xml version="1.0" standalone="no"?>
<!DOCTYPE svg PUBLIC "-//W3C//DTD SVG 20010904//EN"
 "http://www.w3.org/TR/2001/REC-SVG-20010904/DTD/svg10.dtd">
<svg version="1.0" xmlns="http://www.w3.org/2000/svg"
 width="232.000000pt" height="217.000000pt" viewBox="0 0 232.000000 217.000000"
 preserveAspectRatio="xMidYMid meet">
<metadata>
Created by potrace 1.10, written by Peter Selinger 2001-2011
</metadata>
<g transform="translate(0.000000,217.000000) scale(0.100000,-0.100000)"
fill="#000000" stroke="none">
<path d="M1810 2083 c-147 -26 -529 -90 -1073 -179 l-659 -109 7 -30 c5 -27
42 -220 251 -1329 29 -159 54 -298 54 -308 0 -11 4 -17 8 -14 11 7 626 110
1720 288 57 9 71 15 68 27 -3 9 -17 79 -31 156 -45 244 -86 457 -105 555 -11
52 -53 277 -95 500 -41 223 -77 415 -80 428 -5 22 -14 24 -65 15z m51 -45 c1
-13 4 -34 6 -48 2 -14 4 -38 4 -54 0 -17 6 -37 13 -45 8 -9 14 -27 14 -41 -1
-31 29 -198 38 -212 4 -7 2 -8 -4 -4 -14 9 -16 -6 -3 -20 13 -12 43 -143 35
-155 -3 -5 0 -9 6 -9 7 0 9 -8 5 -20 -3 -11 -3 -25 2 -32 4 -7 9 -22 10 -33 1
-11 6 -40 12 -64 7 -24 9 -52 6 -62 -4 -11 -2 -19 3 -19 6 0 9 -20 9 -44 -1
-24 1 -42 5 -40 4 3 10 -12 14 -32 5 -26 3 -39 -7 -45 -8 -5 -9 -9 -3 -9 20 0
46 -85 39 -127 -5 -28 -4 -34 4 -23 9 12 11 9 12 -15 4 -68 6 -84 13 -101 4
-11 12 -46 18 -79 5 -33 14 -82 20 -110 5 -27 10 -62 10 -77 1 -15 4 -26 7
-23 4 2 7 -4 7 -13 1 -9 3 -23 5 -31 4 -13 -69 -34 -165 -47 -22 -3 -43 -7
-47 -10 -4 -2 -34 -7 -66 -10 -32 -3 -92 -11 -133 -19 -41 -8 -104 -19 -140
-24 -36 -6 -105 -18 -155 -27 -49 -8 -114 -17 -143 -19 -28 -2 -58 -7 -65 -12
-6 -4 -21 -8 -32 -9 -68 -5 -95 -9 -95 -16 0 -4 -15 -8 -32 -8 -18 0 -77 -9
-131 -20 -107 -22 -123 -23 -92 -10 19 8 19 9 -2 9 -12 1 -24 -3 -27 -7 -3 -5
-45 -15 -93 -22 -48 -7 -112 -19 -141 -26 -29 -7 -59 -11 -67 -7 -8 3 -15 0
-15 -7 0 -7 -8 -9 -20 -6 -56 16 -65 17 -50 7 8 -5 12 -13 9 -16 -8 -8 -39 5
-39 17 0 5 -4 7 -8 4 -5 -3 -9 0 -9 7 -1 26 -12 95 -23 141 -6 26 -8 57 -4 68
3 11 -1 27 -9 36 -16 19 -29 75 -16 66 5 -3 9 0 9 5 0 6 -5 11 -11 11 -8 0
-10 12 -6 35 3 20 2 33 -3 30 -12 -7 -23 55 -24 127 0 31 -3 53 -6 47 -5 -8
-28 87 -36 146 -1 11 -7 32 -13 47 -6 15 -8 34 -5 41 2 7 -7 60 -21 117 -18
68 -25 116 -20 139 4 26 3 32 -4 21 -9 -13 -11 -12 -12 5 0 11 -3 29 -5 40 -3
11 -6 32 -6 47 -1 15 -5 25 -9 23 -4 -3 -5 4 -2 15 3 11 0 34 -6 52 -7 18 -14
60 -17 93 -3 33 -10 65 -14 70 -5 6 -10 35 -12 65 -1 30 -6 57 -10 60 -4 3 -9
17 -10 30 -3 22 2 25 44 31 26 4 52 11 59 15 7 4 44 11 83 16 39 4 87 11 106
14 19 4 45 6 57 6 13 0 20 4 17 9 -3 5 1 6 9 3 8 -3 32 -1 53 5 22 6 55 12 74
15 19 2 63 9 97 15 47 9 68 9 84 1 11 -7 23 -9 27 -6 3 3 -1 6 -9 7 -8 0 2 7
21 14 44 17 53 18 44 3 -5 -7 -3 -8 6 -3 7 5 30 12 49 16 20 4 68 15 106 23
39 9 76 14 83 11 7 -2 38 2 69 10 31 8 79 17 107 20 84 9 129 16 161 26 28 8
109 20 145 21 8 0 30 4 49 10 41 13 122 25 174 27 32 1 37 -2 38 -21z"/>
<path d="M1795 2040 c-16 -7 -17 -9 -3 -9 9 -1 20 4 23 9 7 11 7 11 -20 0z"/>
<path d="M1757 2019 c7 -7 15 -10 18 -7 3 3 -2 9 -12 12 -14 6 -15 5 -6 -5z"/>
<path d="M1268 1953 c6 -2 18 -2 25 0 6 3 1 5 -13 5 -14 0 -19 -2 -12 -5z"/>
<path d="M1218 1943 c6 -2 18 -2 25 0 6 3 1 5 -13 5 -14 0 -19 -2 -12 -5z"/>
<path d="M1841 1934 c0 -11 3 -14 6 -6 3 7 2 16 -1 19 -3 4 -6 -2 -5 -13z"/>
<path d="M1851 1884 c0 -11 3 -14 6 -6 3 7 2 16 -1 19 -3 4 -6 -2 -5 -13z"/>
<path d="M748 1863 c7 -3 16 -2 19 1 4 3 -2 6 -13 5 -11 0 -14 -3 -6 -6z"/>
<path d="M668 1853 c6 -2 18 -2 25 0 6 3 1 5 -13 5 -14 0 -19 -2 -12 -5z"/>
<path d="M235 1790 c-3 -6 1 -7 9 -4 18 7 21 14 7 14 -6 0 -13 -4 -16 -10z"/>
<path d="M320 1790 c0 -5 -8 -10 -17 -11 -10 0 -13 -3 -7 -5 6 -3 24 2 40 11
26 13 27 15 7 15 -13 0 -23 -4 -23 -10z"/>
<path d="M1861 1784 c0 -11 3 -14 6 -6 3 7 2 16 -1 19 -3 4 -6 -2 -5 -13z"/>
<path d="M428 1773 c6 -2 18 -2 25 0 6 3 1 5 -13 5 -14 0 -19 -2 -12 -5z"/>
<path d="M151 1744 c0 -11 3 -14 6 -6 3 7 2 16 -1 19 -3 4 -6 -2 -5 -13z"/>
<path d="M140 1705 c0 -5 5 -17 10 -25 5 -8 10 -10 10 -5 0 6 -5 17 -10 25 -5
8 -10 11 -10 5z"/>
<path d="M985 1680 c3 -5 11 -10 16 -10 6 0 7 5 4 10 -3 6 -11 10 -16 10 -6 0
-7 -4 -4 -10z"/>
<path d="M1102 1674 c-12 -8 -27 -12 -34 -8 -6 4 -8 3 -5 -3 4 -6 -13 -18 -38
-28 -24 -10 -42 -22 -40 -26 3 -4 -2 -9 -9 -12 -8 -3 -17 -3 -19 1 -2 4 -3 2
-1 -3 1 -6 -25 -24 -57 -40 -32 -16 -59 -32 -59 -36 0 -5 -7 -5 -17 -2 -12 5
-14 3 -8 -7 6 -10 4 -12 -11 -6 -10 4 -15 4 -11 0 12 -12 -32 -36 -56 -30 -12
3 -17 3 -10 0 10 -4 10 -8 0 -19 -7 -7 -15 -11 -19 -8 -5 2 -16 -1 -25 -7 -17
-11 -17 -11 0 -6 11 4 16 2 11 -5 -4 -6 -19 -9 -38 -5 -17 3 -25 2 -18 -2 9
-6 3 -15 -19 -31 -17 -13 -36 -24 -43 -25 -22 -3 -67 -44 -56 -51 5 -3 10 -17
10 -30 0 -28 29 -48 51 -34 20 13 72 12 64 -2 -4 -6 -14 -8 -22 -5 -9 4 -21 1
-29 -4 -7 -6 -18 -10 -26 -9 -31 4 -42 -3 -20 -12 14 -5 39 -5 65 1 23 5 47
10 52 10 6 0 28 -34 50 -75 22 -41 42 -75 45 -75 3 0 26 40 50 89 43 88 44 90
84 96 96 15 108 18 96 25 -7 4 -33 6 -58 4 l-47 -4 40 13 c22 7 87 19 145 26
58 7 130 19 160 26 30 7 70 11 87 10 23 -2 31 1 27 8 -4 8 -2 7 7 0 15 -15 33
-17 25 -4 -8 12 18 21 52 20 21 -1 23 -2 7 -6 -26 -6 -82 -48 -119 -87 -15
-17 -25 -25 -21 -17 5 9 4 12 -3 7 -6 -4 -9 -13 -5 -21 3 -8 0 -15 -6 -15 -6
0 -11 -7 -11 -16 0 -8 -7 -22 -15 -31 -9 -8 -13 -23 -11 -32 3 -9 1 -23 -4
-31 -6 -10 -8 17 -5 77 3 80 1 93 -16 109 -11 10 -19 12 -19 6 0 -7 -11 -12
-24 -12 -35 0 -56 -10 -56 -26 0 -8 -4 -14 -10 -14 -5 0 -10 -6 -10 -13 0 -8
-10 -22 -22 -33 -20 -18 -21 -18 -15 -1 4 11 3 16 -3 12 -6 -3 -10 -12 -10
-20 0 -20 -29 -26 -54 -12 l-23 12 20 20 c16 16 19 17 14 3 -4 -13 -2 -15 10
-11 13 5 15 2 9 -13 -6 -15 -5 -16 5 -7 10 10 9 17 -6 33 -36 39 -40 35 -136
-140 -29 -52 -59 -105 -67 -118 -10 -16 -11 -22 -3 -20 12 3 151 -202 151
-221 0 -8 -91 -23 -152 -25 -36 -1 -20 -16 18 -17 33 -1 129 17 144 26 5 3 10
14 11 23 0 14 2 13 9 -3 6 -15 7 -11 7 18 -1 26 -4 33 -10 22 -4 -8 -13 -13
-18 -10 -5 4 -6 11 -3 17 4 7 2 8 -4 4 -20 -12 -36 37 -22 65 11 23 10 23 -4
5 -13 -17 -18 -18 -29 -6 -9 10 -9 12 1 6 19 -11 14 1 -13 30 -14 15 -24 33
-21 40 3 8 0 11 -8 8 -20 -7 -15 61 7 106 11 22 16 26 13 12 -2 -12 0 -20 5
-16 5 3 9 18 9 35 0 16 5 29 10 29 6 0 10 -5 10 -12 0 -6 3 -8 6 -5 4 4 2 13
-4 20 -16 19 -3 30 16 14 13 -10 14 -9 5 8 -12 22 2 58 25 63 17 3 15 -15 -2
-21 -10 -4 -13 -16 -9 -40 2 -19 0 -38 -6 -42 -17 -10 -13 -25 7 -25 14 0 15
2 2 10 -13 8 -12 10 3 10 13 0 17 9 17 39 0 37 1 39 44 50 44 11 88 50 101 91
4 13 15 20 30 20 13 0 30 3 39 6 13 5 15 0 11 -22 -2 -16 -7 -135 -10 -263 -3
-129 -7 -236 -8 -237 -1 -1 -24 -5 -50 -8 l-48 -7 1 176 c1 97 0 178 -2 180
-2 2 -26 -2 -53 -9 -42 -10 -50 -16 -52 -37 -1 -14 0 -17 3 -6 3 9 11 17 17
18 7 0 24 2 39 4 15 2 30 -1 33 -6 4 -5 3 -9 -2 -9 -13 0 -10 -303 3 -317 6
-7 24 -10 40 -8 16 2 38 4 49 4 39 2 48 16 46 74 -1 44 2 58 16 66 15 8 15 10
3 11 -12 0 -16 13 -17 58 -2 45 0 52 8 34 5 -13 7 -28 3 -33 -3 -5 -1 -9 3 -9
13 0 33 -59 26 -78 -4 -15 -3 -15 6 -2 11 16 12 15 15 -42 1 -9 5 -20 9 -24 4
-5 5 -1 2 8 -10 27 15 32 40 8 32 -30 24 -39 -33 -36 -26 2 -41 1 -34 -1 6 -3
10 -8 8 -12 -8 -13 73 1 85 15 13 16 43 19 33 3 -4 -7 11 -9 52 -4 33 4 57 5
54 2 -3 -2 -75 -14 -160 -26 -85 -12 -163 -26 -172 -31 -11 -6 -19 -6 -23 0
-3 6 -11 10 -16 10 -6 0 -8 -4 -5 -9 8 -13 -74 -23 -89 -11 -9 8 -14 8 -17 -1
-2 -6 -17 -12 -33 -14 -17 -1 -39 -6 -50 -11 -11 -5 -47 -9 -80 -8 -33 0 -51
-2 -40 -4 12 -3 -6 -10 -45 -18 -64 -12 -110 -10 -110 6 0 16 30 19 38 3 8
-13 13 -13 28 -4 16 10 16 12 2 7 -11 -3 -22 2 -28 14 -13 25 -13 33 2 24 6
-4 8 -3 5 3 -3 5 4 31 17 57 l23 47 31 -35 c16 -19 35 -43 40 -53 6 -10 14
-15 17 -11 4 4 -12 41 -35 83 l-43 77 -51 -101 c-50 -99 -52 -101 -86 -101
-19 -1 -48 -7 -65 -16 -29 -14 -28 -14 33 -9 34 2 62 1 62 -3 0 -4 -10 -7 -22
-8 -58 -3 -88 -9 -88 -19 0 -5 -4 -4 -9 4 -7 11 -10 9 -16 -8 -3 -11 -11 -21
-17 -21 -5 0 -8 7 -4 15 3 8 1 15 -4 15 -6 0 -10 -9 -10 -20 0 -11 5 -20 10
-20 6 0 10 -11 10 -25 0 -14 -4 -25 -8 -25 -5 0 -9 -7 -9 -15 0 -8 5 -15 11
-15 6 0 4 -5 -4 -10 -13 -9 -13 -10 0 -10 8 0 56 -2 105 -4 50 -2 79 0 65 4
-14 4 -36 5 -50 2 -14 -2 -22 -2 -18 2 3 4 23 10 45 12 21 3 49 7 63 10 14 3
57 9 95 14 85 11 107 15 163 29 47 12 160 20 165 12 2 -3 2 -1 1 6 -2 7 20 14
64 18 37 3 85 11 107 17 22 6 54 12 70 13 17 2 75 12 130 23 55 11 127 23 160
27 33 4 65 11 70 16 6 4 12 25 13 46 2 21 7 39 12 41 15 5 -29 42 -51 42 -13
0 -18 4 -14 13 4 6 0 4 -8 -5 -10 -13 -16 -15 -25 -6 -9 9 -12 8 -12 -3 0 -18
-56 -24 -66 -7 -4 6 1 8 16 3 15 -5 20 -4 16 4 -4 6 -2 11 4 11 6 0 20 9 32
19 11 11 28 17 37 14 14 -4 14 -3 1 6 -8 6 -11 11 -5 11 5 0 4 5 -3 12 -9 9
-18 5 -39 -17 -40 -40 -86 -56 -173 -62 -67 -5 -79 -3 -110 19 -20 14 -47 47
-64 82 -99 192 25 437 228 453 82 7 127 -9 170 -58 68 -80 75 -220 18 -339
-21 -45 -27 -67 -19 -72 15 -9 28 1 26 20 -1 10 9 42 23 72 22 47 26 70 26
149 0 68 -4 101 -15 118 -10 15 -12 23 -4 23 7 0 9 5 6 10 -4 6 -9 8 -13 6 -4
-2 -18 11 -32 30 -14 18 -31 34 -38 34 -7 0 -10 5 -7 10 3 6 -4 11 -17 11 -13
1 -30 3 -38 4 -8 1 -24 3 -34 4 -27 2 -15 11 20 15 155 21 184 33 184 78 0 26
-36 58 -65 58 -14 0 -25 5 -25 10 0 6 -12 8 -27 4 -22 -4 -25 -3 -13 5 12 9 9
10 -12 5 -24 -5 -26 -3 -22 18 l5 23 -10 -22 c-6 -13 -16 -23 -23 -23 -9 0 -9
3 2 11 12 8 9 10 -12 6 -15 -2 -25 0 -22 4 3 5 -5 9 -18 9 -13 0 -56 9 -95 20
-40 11 -80 17 -89 13 -11 -4 -15 -3 -10 5 3 6 -3 14 -16 18 -13 4 -26 12 -30
18 -4 6 -27 11 -52 11 -24 0 -42 -3 -40 -7 3 -4 -7 -3 -21 2 -36 14 -47 13
-73 -6z m181 -7 c4 -10 -2 -13 -19 -9 -13 2 -21 8 -18 13 8 14 31 11 37 -4z
m72 -52 c116 -30 252 -65 303 -77 88 -20 92 -23 92 -48 0 -26 -3 -28 -72 -39
-40 -7 -310 -52 -600 -99 l-526 -88 -5 31 c-2 16 -1 31 3 33 4 1 76 44 161 94
85 50 197 116 249 146 52 30 111 65 130 78 19 12 40 23 45 23 6 1 105 -24 220
-54z m155 -215 c-34 -11 -60 -11 -35 0 11 5 29 8 40 8 16 0 15 -2 -5 -8z
m-630 -111 c0 -6 -6 -9 -12 -7 -17 6 -46 -24 -40 -42 3 -8 0 -10 -7 -5 -8 4
-11 2 -10 -6 3 -18 -21 -69 -33 -69 -4 0 -8 -7 -8 -15 0 -8 -4 -15 -10 -15 -5
0 -10 7 -10 15 0 8 -4 15 -8 15 -16 0 -30 45 -21 62 6 11 5 19 -2 24 -7 4 -9
3 -5 -4 3 -6 2 -13 -4 -17 -5 -3 -10 1 -10 10 0 9 -4 13 -10 10 -5 -3 -10 1
-10 10 0 9 4 14 9 10 6 -3 29 0 53 6 24 6 55 12 71 13 15 2 30 6 34 9 10 11
33 8 33 -4z m-110 -459 c6 -11 8 -20 6 -20 -3 0 -10 9 -16 20 -6 11 -8 20 -6
20 3 0 10 -9 16 -20z m800 -26 c0 -2 -12 -4 -27 -4 -21 0 -24 3 -14 9 13 8 41
5 41 -5z m148 -41 l-3 -48 -110 -18 c-60 -9 -332 -55 -603 -101 l-494 -83 7
46 c4 25 9 49 11 52 1 3 43 12 91 19 48 7 309 50 578 96 270 45 498 82 508 83
15 1 18 -6 15 -46z"/>
<path d="M1193 1625 c0 -8 4 -12 9 -9 5 3 6 10 3 15 -9 13 -12 11 -12 -6z"/>
<path d="M1150 1619 c0 -5 5 -7 10 -4 6 3 10 8 10 11 0 2 -4 4 -10 4 -5 0 -10
-5 -10 -11z"/>
<path d="M1368 1573 c7 -3 16 -2 19 1 4 3 -2 6 -13 5 -11 0 -14 -3 -6 -6z"/>
<path d="M919 1513 c-13 -16 -12 -17 4 -4 9 7 17 15 17 17 0 8 -8 3 -21 -13z"/>
<path d="M1608 1513 c7 -3 16 -2 19 1 4 3 -2 6 -13 5 -11 0 -14 -3 -6 -6z"/>
<path d="M1183 1413 c9 -2 23 -2 30 0 6 3 -1 5 -18 5 -16 0 -22 -2 -12 -5z"/>
<path d="M795 1270 c-3 -6 1 -7 9 -4 18 7 21 14 7 14 -6 0 -13 -4 -16 -10z"/>
<path d="M790 1205 c-7 -9 -11 -17 -9 -20 3 -2 10 5 17 15 14 24 10 26 -8 5z"/>
<path d="M1668 763 c6 -2 10 -9 7 -14 -4 -5 1 -6 10 -2 13 5 14 7 3 14 -7 5
-17 8 -23 8 -5 0 -4 -3 3 -6z"/>
<path d="M1503 733 c9 -2 15 -9 12 -14 -3 -5 1 -6 10 -2 13 5 14 7 3 14 -7 5
-20 8 -28 8 -11 -1 -10 -3 3 -6z"/>
<path d="M1338 703 c7 -3 16 -2 19 1 4 3 -2 6 -13 5 -11 0 -14 -3 -6 -6z"/>
<path d="M848 623 c7 -3 16 -2 19 1 4 3 -2 6 -13 5 -11 0 -14 -3 -6 -6z"/>
<path d="M1355 1670 c3 -5 10 -10 16 -10 5 0 9 5 9 10 0 6 -7 10 -16 10 -8 0
-12 -4 -9 -10z"/>
<path d="M960 1660 c0 -5 5 -10 11 -10 5 0 7 5 4 10 -3 6 -8 10 -11 10 -2 0
-4 -4 -4 -10z"/>
<path d="M1020 1666 c0 -2 7 -7 16 -10 8 -3 12 -2 9 4 -6 10 -25 14 -25 6z"/>
<path d="M1660 1590 c0 -5 5 -10 11 -10 5 0 7 5 4 10 -3 6 -8 10 -11 10 -2 0
-4 -4 -4 -10z"/>
<path d="M1941 1514 c0 -11 3 -14 6 -6 3 7 2 16 -1 19 -3 4 -6 -2 -5 -13z"/>
<path d="M730 1510 c-8 -5 -10 -10 -5 -10 6 0 17 5 25 10 8 5 11 10 5 10 -5 0
-17 -5 -25 -10z"/>
<path d="M1942 1440 c0 -14 2 -19 5 -12 2 6 2 18 0 25 -3 6 -5 1 -5 -13z"/>
<path d="M560 1390 c0 -5 5 -10 11 -10 5 0 7 5 4 10 -3 6 -8 10 -11 10 -2 0
-4 -4 -4 -10z"/>
<path d="M1700 1364 c0 -5 7 -18 15 -28 8 -11 15 -16 15 -10 0 5 -7 18 -15 28
-8 11 -15 16 -15 10z"/>
<path d="M1730 1365 c0 -5 5 -17 10 -25 5 -8 10 -10 10 -5 0 6 -5 17 -10 25
-5 8 -10 11 -10 5z"/>
<path d="M495 1350 c4 -6 11 -8 16 -5 14 9 11 15 -7 15 -8 0 -12 -5 -9 -10z"/>
<path d="M1310 1354 c0 -1 6 -7 14 -13 10 -8 16 -8 24 1 8 10 4 13 -14 13 -13
0 -24 -1 -24 -1z"/>
<path d="M1296 1321 c-12 -5 -15 -10 -9 -14 6 -4 16 0 23 8 14 17 13 17 -14 6z"/>
<path d="M480 1311 c0 -10 19 -25 25 -20 1 2 -3 10 -11 17 -8 7 -14 8 -14 3z"/>
<path d="M1400 1309 c-12 -8 -10 -9 9 -4 16 5 21 4 17 -4 -4 -6 -3 -11 3 -11
17 0 21 18 5 24 -19 7 -16 8 -34 -5z"/>
<path d="M1468 1313 c7 -3 16 -2 19 1 4 3 -2 6 -13 5 -11 0 -14 -3 -6 -6z"/>
<path d="M1025 1291 c-3 -5 -2 -12 3 -15 5 -3 9 1 9 9 0 17 -3 19 -12 6z"/>
<path d="M500 1270 c0 -5 5 -10 11 -10 5 0 7 5 4 10 -3 6 -8 10 -11 10 -2 0
-4 -4 -4 -10z"/>
<path d="M1379 1263 c-13 -16 -12 -17 4 -4 16 13 21 21 13 21 -2 0 -10 -8 -17
-17z"/>
<path d="M1454 1261 c-71 -43 -99 -110 -91 -215 5 -63 10 -74 37 -98 59 -54
158 -28 203 52 49 87 46 189 -8 245 -26 28 -40 35 -71 35 -22 0 -53 -9 -70
-19z m121 -25 c30 -30 48 -96 39 -144 -4 -20 -7 -39 -7 -42 1 -3 -7 -16 -16
-30 -10 -14 -20 -33 -24 -42 -3 -9 -24 -22 -47 -28 -41 -11 -110 -5 -110 11 0
4 9 6 20 4 11 -2 18 0 15 5 -3 5 -17 7 -31 4 -25 -5 -25 -4 -10 18 20 28 21
49 1 22 -17 -22 -17 -24 -17 82 -1 62 7 89 22 79 4 -3 6 4 3 15 -4 14 0 20 11
20 10 0 14 5 10 11 -4 8 1 9 17 4 17 -4 20 -3 10 3 -11 8 -10 12 5 21 33 19
83 13 109 -13z"/>
<path d="M1531 1231 c-9 -6 -10 -11 -2 -15 6 -4 11 -2 11 4 0 7 7 9 16 6 8 -3
12 -2 9 4 -8 12 -16 12 -34 1z"/>
<path d="M1517 977 c-3 -8 1 -14 8 -14 7 0 11 6 8 14 -3 7 -6 13 -8 13 -2 0
-5 -6 -8 -13z"/>
<path d="M1350 1240 c0 -5 5 -10 11 -10 5 0 7 5 4 10 -3 6 -8 10 -11 10 -2 0
-4 -4 -4 -10z"/>
<path d="M866 1223 c-6 -14 -5 -15 5 -6 7 7 10 15 7 18 -3 3 -9 -2 -12 -12z"/>
<path d="M1160 1231 c0 -6 4 -13 10 -16 6 -3 7 1 4 9 -7 18 -14 21 -14 7z"/>
<path d="M226 1215 c-9 -26 -7 -32 5 -12 6 10 9 21 6 23 -2 3 -7 -2 -11 -11z"/>
<path d="M490 1210 c0 -19 3 -21 12 -12 9 9 9 15 0 24 -9 9 -12 7 -12 -12z"/>
<path d="M530 1200 c0 -6 9 -19 20 -30 11 -11 21 -26 23 -32 1 -7 7 -18 14
-25 6 -7 9 -23 7 -35 -4 -20 -3 -21 4 -4 6 14 11 16 16 8 4 -7 4 -17 0 -24 -4
-7 -3 -8 4 -4 17 10 47 -54 34 -74 -7 -12 -7 -17 4 -17 7 0 11 4 8 9 -3 4 0 8
6 8 6 0 10 -8 8 -17 -2 -10 -10 -17 -17 -15 -7 1 -10 -2 -6 -8 6 -10 -27 -66
-51 -86 -8 -6 -15 -21 -17 -32 -2 -12 -7 -25 -12 -29 -4 -5 -5 -2 0 6 5 9 4
12 -3 7 -7 -4 -12 -13 -12 -20 0 -21 -31 -77 -46 -83 -8 -3 -14 -11 -14 -19 0
-8 -5 -14 -11 -14 -5 0 -7 -5 -4 -10 10 -17 59 38 96 105 17 33 38 67 45 76 8
8 14 19 14 24 0 4 14 30 31 57 l31 49 -38 62 c-81 133 -104 165 -119 170 -8 4
-15 2 -15 -3z"/>
<path d="M231 1164 c0 -11 3 -14 6 -6 3 7 2 16 -1 19 -3 4 -6 -2 -5 -13z"/>
<path d="M481 1164 c0 -11 3 -14 6 -6 3 7 2 16 -1 19 -3 4 -6 -2 -5 -13z"/>
<path d="M675 1110 c3 -5 8 -10 11 -10 2 0 4 5 4 10 0 6 -5 10 -11 10 -5 0 -7
-4 -4 -10z"/>
<path d="M690 1069 c0 -5 5 -7 10 -4 6 3 10 8 10 11 0 2 -4 4 -10 4 -5 0 -10
-5 -10 -11z"/>
<path d="M560 1060 c0 -5 5 -10 11 -10 5 0 7 5 4 10 -3 6 -8 10 -11 10 -2 0
-4 -4 -4 -10z"/>
<path d="M690 1040 c0 -6 4 -9 9 -6 5 4 12 1 14 -4 3 -6 4 -5 3 2 -3 15 -26
23 -26 8z"/>
<path d="M2015 1020 c3 -5 8 -10 11 -10 2 0 4 5 4 10 0 6 -5 10 -11 10 -5 0
-7 -4 -4 -10z"/>
<path d="M2006 975 c-9 -26 -7 -32 5 -12 6 10 9 21 6 23 -2 3 -7 -2 -11 -11z"/>
<path d="M1646 965 c-3 -8 -1 -15 4 -15 6 0 10 7 10 15 0 8 -2 15 -4 15 -2 0
-6 -7 -10 -15z"/>
<path d="M1737 973 c-2 -5 -3 -22 -2 -40 2 -23 -3 -34 -19 -41 -17 -8 -17 -11
-4 -11 9 -1 20 4 23 9 4 6 10 8 14 6 9 -6 7 46 -2 61 -4 6 -1 14 5 16 9 4 10
6 1 6 -6 1 -14 -2 -16 -6z"/>
<path d="M1041 954 c0 -11 3 -14 6 -6 3 7 2 16 -1 19 -3 4 -6 -2 -5 -13z"/>
<path d="M2052 950 c0 -14 2 -19 5 -12 2 6 2 18 0 25 -3 6 -5 1 -5 -13z"/>
<path d="M1321 943 c7 -12 15 -20 18 -17 3 2 -3 12 -13 22 -17 16 -18 16 -5
-5z"/>
<path d="M910 938 c0 -9 5 -20 10 -23 13 -8 13 5 0 25 -8 13 -10 13 -10 -2z"/>
<path d="M292 920 c0 -14 2 -19 5 -12 2 6 2 18 0 25 -3 6 -5 1 -5 -13z"/>
<path d="M1365 930 c3 -5 8 -10 11 -10 2 0 4 5 4 10 0 6 -5 10 -11 10 -5 0 -7
-4 -4 -10z"/>
<path d="M940 920 c0 -5 5 -10 11 -10 5 0 7 5 4 10 -3 6 -8 10 -11 10 -2 0 -4
-4 -4 -10z"/>
<path d="M1347 906 c-4 -10 -1 -13 8 -9 8 3 12 9 9 14 -7 12 -11 11 -17 -5z"/>
<path d="M1053 850 c0 -25 2 -35 4 -22 2 12 2 32 0 45 -2 12 -4 2 -4 -23z"/>
<path d="M665 859 c-4 -6 -5 -12 -2 -15 2 -3 7 2 10 11 7 17 1 20 -8 4z"/>
<path d="M1251 824 c0 -11 3 -14 6 -6 3 7 2 16 -1 19 -3 4 -6 -2 -5 -13z"/>
<path d="M300 821 c0 -6 4 -13 10 -16 6 -3 7 1 4 9 -7 18 -14 21 -14 7z"/>
<path d="M880 810 c0 -5 5 -10 10 -10 6 0 10 5 10 10 0 6 -4 10 -10 10 -5 0
-10 -4 -10 -10z"/>
<path d="M1024 795 c-4 -9 -1 -22 6 -28 10 -9 11 -9 5 2 -4 7 -2 16 5 21 9 5
9 9 1 14 -6 4 -14 0 -17 -9z"/>
<path d="M606 743 c-6 -14 -5 -15 5 -6 7 7 10 15 7 18 -3 3 -9 -2 -12 -12z"/>
<path d="M2081 745 c1 -19 18 -51 18 -35 0 8 -4 22 -9 30 -5 8 -9 11 -9 5z"/>
<path d="M1751 714 c0 -11 3 -14 6 -6 3 7 2 16 -1 19 -3 4 -6 -2 -5 -13z"/>
<path d="M483 698 c-2 -18 0 -20 7 -8 12 18 13 30 2 30 -4 0 -9 -10 -9 -22z"/>
<path d="M748 703 c7 -3 16 -2 19 1 4 3 -2 6 -13 5 -11 0 -14 -3 -6 -6z"/>
<path d="M1735 680 c3 -5 11 -10 16 -10 6 0 7 5 4 10 -3 6 -11 10 -16 10 -6 0
-7 -4 -4 -10z"/>
<path d="M1668 673 c7 -3 16 -2 19 1 4 3 -2 6 -13 5 -11 0 -14 -3 -6 -6z"/>
<path d="M1700 659 c0 -5 5 -7 10 -4 6 3 10 8 10 11 0 2 -4 4 -10 4 -5 0 -10
-5 -10 -11z"/>
<path d="M2081 665 c0 -5 4 -19 8 -29 7 -19 8 -19 13 2 4 12 2 20 -2 17 -5 -3
-11 1 -13 7 -3 7 -5 9 -6 3z"/>
<path d="M2112 600 c0 -14 2 -19 5 -12 2 6 2 18 0 25 -3 6 -5 1 -5 -13z"/>
<path d="M1276 601 c-4 -5 3 -7 14 -4 23 6 26 13 6 13 -8 0 -17 -4 -20 -9z"/>
<path d="M2100 559 c0 -5 5 -7 10 -4 6 3 10 8 10 11 0 2 -4 4 -10 4 -5 0 -10
-5 -10 -11z"/>
<path d="M750 520 c0 -5 7 -10 15 -10 8 0 15 5 15 10 0 6 -7 10 -15 10 -8 0
-15 -4 -15 -10z"/>
<path d="M808 523 c7 -3 16 -2 19 1 4 3 -2 6 -13 5 -11 0 -14 -3 -6 -6z"/>
<path d="M705 500 c-16 -7 -17 -9 -3 -9 9 -1 20 4 23 9 7 11 7 11 -20 0z"/>
<path d="M1848 403 c7 -3 16 -2 19 1 4 3 -2 6 -13 5 -11 0 -14 -3 -6 -6z"/>
<path d="M1360 320 c0 -5 5 -10 11 -10 5 0 7 5 4 10 -3 6 -8 10 -11 10 -2 0
-4 -4 -4 -10z"/>
<path d="M1270 310 c-18 -12 -2 -12 25 0 13 6 15 9 5 9 -8 0 -22 -4 -30 -9z"/>
<path d="M730 230 c-18 -12 -2 -12 25 0 13 6 15 9 5 9 -8 0 -22 -4 -30 -9z"/>
<path d="M1977 2049 c-11 -6 -25 -26 -33 -44 -27 -65 18 -125 94 -125 56 0 92
35 92 90 0 57 -34 90 -92 90 -24 0 -51 -5 -61 -11z m114 -28 c34 -35 36 -59 9
-94 -27 -34 -63 -41 -105 -21 -56 26 -60 94 -8 126 41 25 71 22 104 -11z"/>
<path d="M1997 2023 c-4 -3 -6 -29 -6 -57 1 -29 4 -39 6 -23 5 34 19 34 55 0
15 -15 28 -22 28 -16 0 6 -7 16 -15 23 -14 12 -14 15 0 30 15 16 14 19 0 34
-17 16 -56 22 -68 9z m54 -28 c0 -5 -12 -11 -26 -13 -18 -2 -25 1 -25 13 0 12
7 15 25 13 14 -2 26 -7 26 -13z"/>
<path d="M888 1973 c6 -2 18 -2 25 0 6 3 1 5 -13 5 -14 0 -19 -2 -12 -5z"/>
<path d="M1948 1888 c9 -9 9 -15 -1 -27 -11 -14 -10 -14 6 -2 13 10 15 17 6
27 -6 8 -14 14 -17 14 -3 0 -1 -5 6 -12z"/>
<path d="M2090 1870 c-9 -6 -10 -10 -3 -10 6 0 15 5 18 10 8 12 4 12 -15 0z"/>
<path d="M2120 1866 c0 -2 7 -7 16 -10 8 -3 12 -2 9 4 -6 10 -25 14 -25 6z"/>
<path d="M1991 1794 c0 -11 3 -14 6 -6 3 7 2 16 -1 19 -3 4 -6 -2 -5 -13z"/>
<path d="M2071 1414 c0 -11 3 -14 6 -6 3 7 2 16 -1 19 -3 4 -6 -2 -5 -13z"/>
<path d="M2031 1404 c0 -11 3 -14 6 -6 3 7 2 16 -1 19 -3 4 -6 -2 -5 -13z"/>
<path d="M185 980 c-3 -5 -1 -10 4 -10 6 0 11 5 11 10 0 6 -2 10 -4 10 -3 0
-8 -4 -11 -10z"/>
<path d="M2231 564 c0 -11 3 -14 6 -6 3 7 2 16 -1 19 -3 4 -6 -2 -5 -13z"/>
<path d="M271 544 c0 -11 3 -14 6 -6 3 7 2 16 -1 19 -3 4 -6 -2 -5 -13z"/>
<path d="M2202 490 c0 -14 2 -19 5 -12 2 6 2 18 0 25 -3 6 -5 1 -5 -13z"/>
<path d="M1510 260 c-9 -6 -10 -10 -3 -10 6 0 15 5 18 10 8 12 4 12 -15 0z"/>
<path d="M1178 203 c7 -3 16 -2 19 1 4 3 -2 6 -13 5 -11 0 -14 -3 -6 -6z"/>
<path d="M320 150 c0 -5 5 -10 11 -10 5 0 7 5 4 10 -3 6 -8 10 -11 10 -2 0 -4
-4 -4 -10z"/>
<path d="M668 113 c6 -2 18 -2 25 0 6 3 1 5 -13 5 -14 0 -19 -2 -12 -5z"/>
<path d="M568 93 c7 -3 16 -2 19 1 4 3 -2 6 -13 5 -11 0 -14 -3 -6 -6z"/>
<path d="M618 93 c7 -3 16 -2 19 1 4 3 -2 6 -13 5 -11 0 -14 -3 -6 -6z"/>
</g>
</svg>
