<?xml version="1.0" standalone="no"?>
<!DOCTYPE svg PUBLIC "-//W3C//DTD SVG 20010904//EN"
 "http://www.w3.org/TR/2001/REC-SVG-20010904/DTD/svg10.dtd">
<svg version="1.0" xmlns="http://www.w3.org/2000/svg"
 width="300.000000pt" height="300.000000pt" viewBox="0 0 300.000000 300.000000"
 preserveAspectRatio="xMidYMid meet">
<metadata>
Created by potrace 1.10, written by Peter Selinger 2001-2011
</metadata>
<g transform="translate(0.000000,300.000000) scale(0.100000,-0.100000)"
fill="#000000" stroke="none">
<path d="M816 2831 c-3 -5 1 -11 9 -15 8 -3 15 -1 15 4 0 13 -18 22 -24 11z"/>
<path d="M855 2830 c-8 -13 15 -13 35 0 12 8 11 10 -7 10 -12 0 -25 -4 -28
-10z"/>
<path d="M946 2831 c-3 -5 1 -11 9 -14 9 -4 12 -1 8 9 -6 16 -10 17 -17 5z"/>
<path d="M980 2830 c0 -5 7 -10 15 -10 8 0 15 5 15 10 0 6 -7 10 -15 10 -8 0
-15 -4 -15 -10z"/>
<path d="M1020 2831 c0 -10 179 -11 185 -1 3 5 -38 8 -90 8 -52 0 -95 -3 -95
-7z"/>
<path d="M1234 2831 c11 -4 42 -7 70 -6 28 1 54 -4 58 -9 5 -7 8 -8 8 -1 0 7
106 10 320 9 180 -1 320 2 320 7 0 5 -173 9 -397 8 -219 0 -389 -4 -379 -8z"/>
<path d="M2026 2815 c4 -8 10 -13 14 -10 11 7 61 -35 54 -46 -3 -6 -2 -15 4
-22 11 -15 10 -57 -2 -76 -6 -9 -5 -12 2 -7 13 8 22 -170 9 -196 -4 -11 -4
-18 2 -18 7 0 7 -9 1 -25 -5 -14 -6 -25 -2 -25 4 0 7 -49 8 -109 0 -75 -3
-108 -10 -104 -8 5 -7 2 0 -8 9 -12 12 -221 4 -239 -1 -3 -1 -9 0 -15 7 -26 5
-187 -2 -191 -5 -3 -5 -11 -1 -17 11 -19 13 -106 2 -112 -5 -4 -6 -12 -2 -18
12 -18 10 -251 -2 -259 -6 -5 -5 -8 3 -8 9 0 11 -7 7 -19 -3 -11 -1 -22 5 -26
7 -4 7 -12 0 -26 -6 -11 -8 -24 -4 -30 4 -6 0 -15 -7 -20 -10 -6 -11 -9 -1 -9
6 0 12 -7 12 -15 0 -8 -4 -15 -10 -15 -5 0 -7 -7 -4 -15 4 -9 0 -15 -7 -15
-12 0 -12 -2 -1 -9 8 -5 16 -34 18 -70 l5 -61 -88 -2 c-48 0 -73 -3 -55 -5 17
-2 32 -8 32 -14 0 -11 100 -12 118 -1 10 7 13 148 12 713 0 387 -3 785 -6 884
-5 202 -14 232 -71 259 -41 20 -44 20 -37 1z"/>
<path d="M745 2800 c-3 -5 -2 -10 4 -10 5 0 13 5 16 10 3 6 2 10 -4 10 -5 0
-13 -4 -16 -10z"/>
<path d="M721 2754 c0 -11 3 -14 6 -6 3 7 2 16 -1 19 -3 4 -6 -2 -5 -13z"/>
<path d="M1078 2572 l-96 -3 -4 -62 c-8 -132 -9 -757 -1 -757 4 0 10 179 12
398 2 218 5 400 8 405 2 4 200 7 440 7 240 -1 438 2 441 5 3 3 -39 5 -94 6
-325 3 -622 4 -706 1z"/>
<path d="M1903 2384 c0 -17 2 -22 7 -13 5 6 6 18 3 26 -8 19 -10 16 -10 -13z"/>
<path d="M1906 2287 c3 -10 9 -15 12 -12 3 3 0 11 -7 18 -10 9 -11 8 -5 -6z"/>
<path d="M712 2255 c0 -16 2 -22 5 -12 2 9 2 23 0 30 -3 6 -5 -1 -5 -18z"/>
<path d="M1194 2242 c-3 -9 -10 -25 -15 -35 -14 -25 -4 -33 17 -16 13 11 18
11 21 2 3 -7 16 -13 29 -13 15 0 23 4 19 11 -4 6 2 13 14 16 12 3 21 13 21 24
0 14 -7 19 -28 19 -26 0 -28 -3 -24 -31 3 -22 1 -30 -7 -25 -6 4 -11 18 -11
31 0 28 -28 42 -36 17z m86 -12 c0 -5 -4 -10 -10 -10 -5 0 -10 5 -10 10 0 6 5
10 10 10 6 0 10 -4 10 -10z"/>
<path d="M1603 2245 c-8 -6 -13 -22 -11 -36 3 -22 8 -24 61 -26 35 -1 57 2 57
8 0 6 -7 9 -15 5 -8 -3 -15 -1 -15 3 0 5 6 12 13 14 10 4 10 6 0 6 -19 1 -16
19 5 23 9 3 -5 6 -32 9 -27 2 -55 0 -63 -6z m47 -25 c0 -13 -7 -20 -18 -20
-24 0 -32 8 -25 26 8 22 43 17 43 -6z"/>
<path d="M1310 2215 c0 -19 5 -35 10 -35 6 0 10 7 10 15 0 8 6 15 14 15 8 0
17 6 19 13 3 6 6 0 6 -15 1 -25 5 -28 36 -28 33 0 35 2 35 35 0 19 -4 35 -10
35 -5 0 -10 -13 -10 -30 0 -22 -4 -28 -15 -24 -8 4 -15 16 -15 28 0 20 -6 23
-40 24 -39 2 -40 1 -40 -33z m40 15 c0 -5 -4 -10 -10 -10 -5 0 -10 5 -10 10 0
6 5 10 10 10 6 0 10 -4 10 -10z"/>
<path d="M1456 2218 c-3 -17 -4 -33 -1 -36 3 -3 5 0 5 6 0 7 7 12 15 12 8 0
15 -4 15 -10 0 -5 9 -10 20 -10 14 0 20 7 20 21 0 11 5 17 10 14 6 -3 10 3 10
14 0 14 -6 21 -19 21 -14 0 -17 -6 -13 -25 2 -15 0 -25 -7 -25 -6 0 -11 11
-11 25 0 39 -36 34 -44 -7z m34 1 c0 -5 -4 -9 -10 -9 -5 0 -10 7 -10 16 0 8 5
12 10 9 6 -3 10 -10 10 -16z"/>
<path d="M1560 2238 c0 -7 -3 -23 -6 -35 -5 -17 -2 -23 10 -23 12 0 16 9 16
35 0 19 -4 35 -10 35 -5 0 -10 -6 -10 -12z"/>
<path d="M1230 2100 c0 -40 15 -55 23 -22 4 16 5 16 6 0 1 -25 31 -23 31 2 0
11 -6 19 -12 18 -7 -2 -14 7 -16 20 -6 40 -32 26 -32 -18z"/>
<path d="M1294 2109 c3 -17 6 -35 6 -40 0 -5 5 -9 10 -9 6 0 10 18 10 40 0 30
-4 40 -16 40 -13 0 -15 -7 -10 -31z"/>
<path d="M1340 2126 c-20 -26 -8 -61 22 -64 22 -3 29 2 34 22 11 44 -29 74
-56 42z m38 -28 c-2 -13 -7 -23 -13 -23 -5 0 -11 10 -13 23 -2 15 2 22 13 22
11 0 15 -7 13 -22z"/>
<path d="M1410 2099 c0 -38 1 -40 28 -37 21 2 28 9 30 32 4 30 -10 46 -40 46
-14 0 -18 -9 -18 -41z m45 1 c0 -7 -6 -15 -12 -17 -8 -3 -13 4 -13 17 0 13 5
20 13 18 6 -3 12 -11 12 -18z"/>
<path d="M1482 2103 c3 -33 7 -38 31 -41 24 -3 27 0 28 30 0 27 2 29 8 13 5
-11 6 -26 4 -32 -4 -9 9 -13 46 -13 49 0 69 14 34 23 -17 4 -17 5 0 6 10 0 15
6 12 11 -4 6 -11 8 -16 5 -5 -4 -9 -1 -9 4 0 6 7 11 15 11 8 0 15 5 15 10 0 6
-11 10 -25 10 -22 0 -25 -4 -25 -35 0 -27 -3 -33 -15 -29 -10 4 -14 16 -13 32
2 21 -1 27 -17 27 -14 0 -21 -8 -25 -28 -7 -39 -24 -39 -28 1 -2 17 -8 32 -13
32 -6 0 -9 -17 -7 -37z"/>
<path d="M1075 2030 c-7 -11 9 -11 45 0 24 8 24 8 -7 9 -17 1 -35 -3 -38 -9z"/>
<path d="M1150 2030 c0 -6 7 -10 15 -10 8 0 15 2 15 4 0 2 -7 6 -15 10 -8 3
-15 1 -15 -4z"/>
<path d="M715 2010 c-3 -5 -1 -10 4 -10 6 0 11 5 11 10 0 6 -2 10 -4 10 -3 0
-8 -4 -11 -10z"/>
<path d="M1045 2010 c3 -4 -5 -10 -16 -13 -24 -6 -21 -30 4 -35 12 -2 17 3 17
19 0 22 0 22 16 3 8 -10 12 -13 8 -5 -5 10 -1 11 15 6 14 -4 21 -2 21 7 0 10
2 10 9 -1 5 -7 13 -11 19 -7 6 3 12 1 14 -5 2 -7 15 -13 29 -14 13 -1 24 -7
24 -13 0 -6 6 -17 13 -23 6 -7 12 -19 12 -25 0 -7 7 -20 16 -28 8 -9 11 -16 5
-16 -20 0 -12 -48 9 -55 23 -7 26 -25 8 -44 -11 -11 -10 -13 2 -9 23 7 40 89
29 138 -11 50 -44 97 -81 116 -25 13 -28 12 -38 -5 -7 -13 -7 -21 0 -24 6 -3
5 -4 -2 -3 -7 2 -12 10 -12 18 1 11 -5 14 -19 10 -14 -3 -18 -1 -13 6 10 17
-10 15 -28 -3 -8 -8 -17 -11 -20 -6 -3 5 -15 11 -26 14 -11 3 -18 2 -15 -3z
m186 -20 c10 -6 19 -17 19 -24 0 -18 -27 -40 -34 -28 -3 6 1 12 9 16 23 8 18
29 -5 23 -13 -3 -20 0 -20 9 0 17 5 17 31 4z m49 -71 c11 -26 11 -32 -1 -39
-18 -12 -39 7 -39 35 0 44 23 47 40 4z m10 -83 c0 -19 -4 -23 -20 -19 -30 8
-25 43 7 43 7 0 13 -11 13 -24z"/>
<path d="M1010 1935 c-7 -9 -10 -18 -7 -21 3 -3 10 4 17 15 13 25 8 27 -10 6z"/>
<path d="M1095 1910 c-42 -14 -50 -21 -47 -39 1 -13 -5 -32 -13 -44 -8 -12
-15 -25 -15 -29 0 -4 38 -6 84 -5 l85 1 6 32 c3 17 2 39 -1 49 -5 13 -4 16 4
11 7 -4 12 -2 12 4 0 6 -8 13 -17 16 -10 3 -25 9 -33 13 -8 4 -37 0 -65 -9z
m-15 -29 c0 -6 -4 -13 -10 -16 -5 -3 -10 1 -10 9 0 9 5 16 10 16 6 0 10 -4 10
-9z m79 -7 c-8 -9 -15 -12 -17 -6 -6 18 -33 1 -28 -17 3 -9 1 -23 -4 -31 -9
-13 -12 -13 -25 4 -21 28 9 65 54 66 30 0 32 -2 20 -16z m23 -36 c-15 -15 -26
-4 -18 18 5 13 9 15 18 6 9 -9 9 -15 0 -24z m-32 -19 c0 -5 -4 -9 -10 -9 -5 0
-10 7 -10 16 0 8 5 12 10 9 6 -3 10 -10 10 -16z m-80 1 c0 -5 -4 -10 -10 -10
-5 0 -10 5 -10 10 0 6 5 10 10 10 6 0 10 -4 10 -10z"/>
<path d="M820 1826 c0 -2 7 -7 16 -10 8 -3 12 -2 9 4 -6 10 -25 14 -25 6z"/>
<path d="M1217 1782 c-22 -24 -21 -28 6 -29 12 0 16 1 10 4 -19 7 -15 23 5 20
20 -2 29 17 9 21 -7 1 -21 -6 -30 -16z"/>
<path d="M997 1783 c-8 -12 9 -36 21 -32 7 3 6 10 -3 22 -7 10 -15 14 -18 10z"/>
<path d="M831 1664 c0 -11 3 -14 6 -6 3 7 2 16 -1 19 -3 4 -6 -2 -5 -13z"/>
<path d="M712 1630 c0 -14 2 -19 5 -12 2 6 2 18 0 25 -3 6 -5 1 -5 -13z"/>
<path d="M1550 1621 c0 -6 4 -13 10 -16 6 -3 7 1 4 9 -7 18 -14 21 -14 7z"/>
<path d="M710 1581 c0 -6 4 -13 10 -16 6 -3 7 1 4 9 -7 18 -14 21 -14 7z"/>
<path d="M1141 1567 c-6 -16 -11 -29 -11 -30 0 -1 11 -3 25 -3 29 -2 30 1 10
36 l-13 25 -11 -28z"/>
<path d="M1707 1583 c-11 -10 -8 -53 3 -53 6 0 10 14 10 30 0 31 -2 35 -13 23z"/>
<path d="M1626 1531 c-4 -5 -2 -12 3 -15 5 -4 12 -2 15 3 4 5 2 12 -3 15 -5 4
-12 2 -15 -3z"/>
<path d="M1776 1531 c-4 -5 -2 -12 3 -15 5 -4 12 -2 15 3 4 5 2 12 -3 15 -5 4
-12 2 -15 -3z"/>
<path d="M1065 1520 c3 -5 10 -10 16 -10 5 0 9 5 9 10 0 6 -7 10 -16 10 -8 0
-12 -4 -9 -10z"/>
<path d="M1210 1520 c0 -5 4 -10 9 -10 6 0 13 5 16 10 3 6 -1 10 -9 10 -9 0
-16 -4 -16 -10z"/>
<path d="M982 1508 c-14 -14 2 -48 23 -48 15 0 30 35 20 50 -8 13 -28 13 -43
-2z m28 -18 c0 -5 -4 -10 -10 -10 -5 0 -10 5 -10 10 0 6 5 10 10 10 6 0 10 -4
10 -10z"/>
<path d="M1281 1506 c-6 -7 -9 -21 -5 -30 8 -21 44 -21 44 0 0 14 -3 14 -15 4
-12 -10 -15 -10 -15 4 0 9 7 16 16 16 8 0 12 5 9 10 -9 14 -20 13 -34 -4z"/>
<path d="M1518 1515 c-9 -9 4 -55 13 -49 11 7 12 54 1 54 -5 0 -11 -2 -14 -5z"/>
<path d="M1550 1506 c0 -8 6 -17 13 -19 10 -4 10 -6 0 -6 -7 -1 -13 -6 -13
-12 0 -6 8 -9 18 -7 24 5 25 58 0 58 -10 0 -18 -6 -18 -14z"/>
<path d="M1840 1512 c0 -4 6 -14 13 -21 10 -10 9 -11 -5 -6 -10 4 -18 3 -18
-3 0 -15 26 -22 38 -10 13 13 3 48 -14 48 -8 0 -14 -4 -14 -8z"/>
<path d="M1655 1497 c-85 -27 -130 -154 -79 -224 71 -96 186 -97 257 -2 28 39
29 128 1 165 -47 64 -106 84 -179 61z m75 -17 c0 -5 13 -16 30 -25 75 -39 81
-164 9 -201 -59 -30 -144 -10 -167 41 -24 53 -11 112 32 147 44 36 51 25 47
-67 -3 -82 -2 -85 19 -85 11 0 18 5 15 10 -3 6 -1 10 4 10 6 0 11 4 11 10 0 5
-7 7 -15 4 -12 -5 -15 5 -15 59 0 54 3 66 18 70 13 4 11 5 -5 6 -29 1 -31 31
-3 31 11 0 20 -4 20 -10z"/>
<path d="M1721 1424 c0 -11 3 -14 6 -6 3 7 2 16 -1 19 -3 4 -6 -2 -5 -13z"/>
<path d="M1043 1455 c-40 -42 -43 -49 -43 -101 0 -30 5 -64 10 -74 50 -94 177
-111 251 -34 32 33 34 39 34 105 0 70 0 71 -42 110 -40 37 -46 39 -104 39 -61
0 -63 -1 -106 -45z m127 25 c0 -5 13 -16 30 -25 86 -45 85 -175 -2 -210 -90
-36 -158 11 -158 109 0 36 6 50 31 75 51 51 59 43 59 -54 0 -78 2 -85 20 -85
15 0 20 6 19 28 l-1 27 -8 -25 c-10 -30 -12 -14 -10 65 1 33 7 63 13 67 8 5 6
8 -5 8 -10 0 -18 7 -18 15 0 8 7 15 15 15 8 0 15 -4 15 -10z"/>
<path d="M1161 1364 c0 -11 3 -14 6 -6 3 7 2 16 -1 19 -3 4 -6 -2 -5 -13z"/>
<path d="M711 1434 c0 -11 3 -14 6 -6 3 7 2 16 -1 19 -3 4 -6 -2 -5 -13z"/>
<path d="M960 1420 c0 -5 5 -10 10 -10 6 0 10 5 10 10 0 6 -4 10 -10 10 -5 0
-10 -4 -10 -10z"/>
<path d="M1520 1420 c0 -5 5 -10 10 -10 6 0 10 5 10 10 0 6 -4 10 -10 10 -5 0
-10 -4 -10 -10z"/>
<path d="M1875 1420 c-3 -5 -1 -10 4 -10 6 0 11 5 11 10 0 6 -2 10 -4 10 -3 0
-8 -4 -11 -10z"/>
<path d="M1315 1410 c4 -6 11 -8 16 -5 14 9 11 15 -7 15 -8 0 -12 -5 -9 -10z"/>
<path d="M710 1399 c0 -5 5 -7 10 -4 6 3 10 8 10 11 0 2 -4 4 -10 4 -5 0 -10
-5 -10 -11z"/>
<path d="M711 1364 c0 -11 3 -14 6 -6 3 7 2 16 -1 19 -3 4 -6 -2 -5 -13z"/>
<path d="M910 1350 c0 -27 3 -30 30 -30 28 0 30 2 24 28 -8 33 -14 41 -14 19
0 -9 -4 -17 -10 -17 -5 0 -10 7 -10 15 0 8 -4 15 -10 15 -5 0 -10 -13 -10 -30z"/>
<path d="M1463 1369 c-12 -12 -6 -49 8 -49 5 0 9 14 9 30 0 33 -1 35 -17 19z"/>
<path d="M1495 1370 c-4 -6 -1 -10 4 -10 6 0 11 -7 11 -16 0 -8 -4 -12 -10 -9
-11 7 -14 -8 -4 -18 12 -12 34 6 34 28 0 24 -25 41 -35 25z"/>
<path d="M1897 1373 c-4 -3 -7 -17 -7 -30 0 -17 5 -24 17 -21 9 2 18 9 21 17
3 10 0 12 -14 7 -15 -6 -17 -5 -6 5 6 7 12 17 12 21 0 10 -14 11 -23 1z"/>
<path d="M1332 1343 c3 -26 38 -48 38 -24 0 6 -8 11 -17 12 -15 0 -15 2 2 9
13 6 15 9 5 9 -13 1 -13 2 0 11 12 8 10 10 -8 10 -20 0 -23 -4 -20 -27z"/>
<path d="M710 1285 c0 -19 4 -35 8 -35 4 0 6 16 4 35 -2 19 -6 35 -8 35 -2 0
-4 -16 -4 -35z"/>
<path d="M1526 1281 c-4 -7 -5 -15 -2 -18 9 -9 19 4 14 18 -4 11 -6 11 -12 0z"/>
<path d="M1870 1275 c0 -8 5 -15 10 -15 6 0 10 7 10 15 0 8 -4 15 -10 15 -5 0
-10 -7 -10 -15z"/>
<path d="M960 1270 c0 -5 5 -10 10 -10 6 0 10 5 10 10 0 6 -4 10 -10 10 -5 0
-10 -4 -10 -10z"/>
<path d="M1310 1270 c0 -5 5 -10 10 -10 6 0 10 5 10 10 0 6 -4 10 -10 10 -5 0
-10 -4 -10 -10z"/>
<path d="M960 1201 c0 -32 20 -55 20 -24 1 17 1 17 14 1 18 -25 29 -23 16 3
-9 15 -8 24 1 35 14 17 -2 19 -19 2 -9 -9 -12 -9 -12 0 0 7 -4 12 -10 12 -5 0
-10 -13 -10 -29z"/>
<path d="M1273 1212 c-14 -23 0 -42 30 -42 14 0 18 6 15 27 -4 33 -28 41 -45
15z m31 -17 c-4 -8 -10 -12 -15 -9 -11 6 -2 24 11 24 5 0 7 -7 4 -15z"/>
<path d="M1533 1222 c-13 -8 -6 -52 8 -52 5 0 9 14 9 30 0 33 0 33 -17 22z"/>
<path d="M1566 1222 c-7 -12 4 -52 15 -52 12 0 12 47 0 55 -5 3 -12 2 -15 -3z"/>
<path d="M1830 1220 c0 -5 5 -10 10 -10 7 0 7 -6 0 -20 -6 -11 -7 -20 -2 -20
11 0 32 46 25 54 -10 10 -33 7 -33 -4z"/>
<path d="M1626 1182 c-3 -6 -1 -14 5 -17 15 -10 25 3 12 16 -7 7 -13 7 -17 1z"/>
<path d="M1766 1182 c-3 -6 -1 -14 5 -17 15 -10 25 3 12 16 -7 7 -13 7 -17 1z"/>
<path d="M818 1173 c7 -3 16 -2 19 1 4 3 -2 6 -13 5 -11 0 -14 -3 -6 -6z"/>
<path d="M1060 1170 c0 -5 7 -10 16 -10 8 0 12 5 9 10 -3 6 -10 10 -16 10 -5
0 -9 -4 -9 -10z"/>
<path d="M1205 1170 c-3 -5 1 -10 10 -10 9 0 13 5 10 10 -3 6 -8 10 -10 10 -2
0 -7 -4 -10 -10z"/>
<path d="M1142 1140 c0 -19 2 -27 5 -17 2 9 2 25 0 35 -3 9 -5 1 -5 -18z"/>
<path d="M1696 1163 c-3 -4 -6 -17 -6 -30 0 -31 34 -28 38 3 3 21 -20 39 -32
27z"/>
<path d="M711 1051 c1 -34 4 -60 6 -57 7 7 5 107 -2 114 -2 3 -4 -23 -4 -57z"/>
<path d="M1051 1065 c0 -16 3 -24 6 -17 2 6 9 9 15 6 6 -4 48 -8 94 -9 78 -2
83 -1 74 15 -7 13 -6 20 3 23 6 3 2 6 -10 6 -15 1 -23 -5 -23 -15 0 -8 -5 -12
-10 -9 -6 4 -8 10 -5 15 3 5 -4 8 -15 7 -11 -1 -20 -7 -20 -14 0 -7 -5 -13
-11 -13 -5 0 -7 5 -4 10 3 6 0 11 -7 11 -49 5 -68 4 -68 -6 0 -5 -5 -3 -10 5
-7 11 -10 8 -9 -15z m64 5 c3 -5 1 -10 -4 -10 -6 0 -11 5 -11 10 0 6 2 10 4
10 3 0 8 -4 11 -10z"/>
<path d="M1643 1070 c2 -16 8 -24 17 -21 8 2 30 3 48 2 26 0 33 3 28 14 -3 8
-1 15 4 15 5 0 10 -8 12 -17 3 -15 5 -14 10 4 6 21 3 22 -49 22 -42 -1 -53 -4
-49 -15 3 -8 1 -14 -4 -14 -5 0 -11 8 -14 18 -2 9 -4 6 -3 -8z"/>
<path d="M831 1004 c0 -11 3 -14 6 -6 3 7 2 16 -1 19 -3 4 -6 -2 -5 -13z"/>
<path d="M713 966 c4 -11 175 -17 182 -6 3 5 -38 10 -90 12 -53 2 -94 -1 -92
-6z"/>
<path d="M1738 973 c7 -3 16 -2 19 1 4 3 -2 6 -13 5 -11 0 -14 -3 -6 -6z"/>
<path d="M1813 973 c15 -2 37 -2 50 0 12 2 0 4 -28 4 -27 0 -38 -2 -22 -4z"/>
<path d="M1903 973 c9 -2 23 -2 30 0 6 3 -1 5 -18 5 -16 0 -22 -2 -12 -5z"/>
<path d="M1043 963 c26 -2 67 -2 90 0 23 2 2 3 -48 3 -49 0 -68 -1 -42 -3z"/>
<path d="M1188 963 c7 -3 16 -2 19 1 4 3 -2 6 -13 5 -11 0 -14 -3 -6 -6z"/>
<path d="M1318 963 c7 -3 16 -2 19 1 4 3 -2 6 -13 5 -11 0 -14 -3 -6 -6z"/>
<path d="M1408 963 c7 -3 16 -2 19 1 4 3 -2 6 -13 5 -11 0 -14 -3 -6 -6z"/>
<path d="M1900 950 c-25 -6 -25 -6 -2 -12 12 -3 22 -11 22 -17 0 -6 -6 -8 -14
-5 -8 3 -17 1 -21 -5 -4 -7 13 -11 49 -11 31 0 56 -4 56 -10 0 -5 -8 -10 -17
-10 -15 0 -15 -2 -4 -9 8 -5 11 -16 8 -24 -3 -9 1 -18 9 -21 13 -5 15 5 12 63
-3 67 -4 69 -29 69 -21 -1 -25 -5 -21 -24 2 -13 0 -24 -6 -24 -6 0 -12 10 -14
23 -2 19 -7 22 -28 17z m80 -14 c0 -3 -4 -8 -10 -11 -5 -3 -10 -1 -10 4 0 6 5
11 10 11 6 0 10 -2 10 -4z"/>
<path d="M810 922 c0 -28 2 -29 55 -31 30 -1 55 2 54 6 -4 23 3 33 21 33 13 0
20 -7 20 -20 0 -11 5 -20 10 -20 6 0 10 10 10 23 0 20 5 22 47 21 26 0 61 3
78 7 18 4 -18 7 -93 8 -93 1 -122 -2 -121 -11 4 -32 -2 -39 -28 -35 -20 2 -29
10 -31 25 -5 32 -22 27 -22 -6z"/>
<path d="M1154 941 c11 -4 54 -6 95 -5 49 1 78 -2 83 -9 5 -8 8 -8 8 -1 0 7
81 11 255 12 l255 1 0 -24 c0 -14 4 -25 9 -25 4 0 8 13 7 30 l-1 30 -365 -1
c-201 0 -356 -4 -346 -8z"/>
<path d="M1150 924 c1 -26 19 -34 78 -33 34 1 62 5 62 9 0 4 -26 5 -57 3 -46
-4 -60 -1 -70 13 -7 10 -13 14 -13 8z"/>
<path d="M1795 920 c-4 -6 -16 -8 -28 -4 -19 6 -20 5 -9 -9 11 -13 17 -14 33
-4 10 6 19 15 19 19 0 11 -8 10 -15 -2z"/>
<path d="M995 909 c-3 -4 2 -6 10 -5 21 3 28 13 10 13 -9 0 -18 -4 -20 -8z"/>
<path d="M1090 911 c0 -10 30 -24 37 -17 3 2 -5 9 -16 16 -12 6 -21 7 -21 1z"/>
<path d="M1406 903 c-6 -14 -5 -15 5 -6 7 7 10 15 7 18 -3 3 -9 -2 -12 -12z"/>
<path d="M1582 904 c-11 -12 -9 -14 8 -14 11 0 20 4 20 9 0 17 -15 19 -28 5z"/>
<path d="M1621 904 c0 -11 3 -14 6 -6 3 7 2 16 -1 19 -3 4 -6 -2 -5 -13z"/>
<path d="M1640 916 c0 -2 8 -10 18 -17 15 -13 16 -12 3 4 -13 16 -21 21 -21
13z"/>
<path d="M1693 913 c-22 -8 -14 -18 14 -20 14 0 22 2 17 6 -5 3 -11 9 -14 12
-3 4 -11 4 -17 2z"/>
<path d="M1330 900 c-13 -8 -12 -10 3 -10 9 0 17 5 17 10 0 12 -1 12 -20 0z"/>
<path d="M1040 896 c0 -2 9 -6 20 -9 11 -3 20 -1 20 4 0 5 -9 9 -20 9 -11 0
-20 -2 -20 -4z"/>
<path d="M1518 893 c7 -3 16 -2 19 1 4 3 -2 6 -13 5 -11 0 -14 -3 -6 -6z"/>
<path d="M1861 864 c0 -11 3 -14 6 -6 3 7 2 16 -1 19 -3 4 -6 -2 -5 -13z"/>
<path d="M961 853 c-1 -21 -6 -23 -61 -23 -46 0 -61 4 -69 18 -6 9 -10 13 -10
7 0 -30 28 -45 83 -45 59 0 73 10 63 47 -4 14 -5 13 -6 -4z"/>
<path d="M1633 822 l-83 -3 1 -37 c1 -37 1 -37 11 -9 12 34 28 35 26 2 -1 -14
-5 -25 -8 -25 -8 0 -11 -24 -15 -142 -1 -60 0 -106 3 -104 4 2 7 -10 8 -27 1
-32 10 -119 20 -187 2 -19 6 -57 8 -85 4 -43 3 -45 -4 -15 -21 89 -41 213 -48
294 -5 67 -11 90 -22 93 -10 3 -11 2 -4 -4 6 -4 14 -51 17 -104 4 -53 9 -104
13 -114 6 -14 4 -16 -12 -8 -10 5 -54 9 -96 8 -48 0 -78 3 -78 10 0 5 -5 3
-10 -5 -8 -12 -10 -11 -10 6 0 12 -7 25 -16 28 -8 3 -13 2 -11 -2 6 -10 -26
-37 -46 -38 -9 -1 -17 3 -17 8 0 6 -8 4 -17 -3 -9 -8 -14 -9 -10 -2 5 7 0 9
-13 6 -21 -6 -28 -35 -7 -32 6 1 87 1 180 0 l167 -1 0 -29 c0 -15 4 -41 10
-57 11 -34 18 -76 20 -124 l1 -35 23 51 24 52 -20 128 c-26 178 -29 467 -3
492 2 3 12 2 21 -2 11 -4 14 -13 10 -30 -4 -15 -1 -28 6 -32 7 -5 9 -2 6 7 -8
21 9 59 27 59 8 0 15 -7 15 -16 0 -8 5 -12 10 -9 6 4 8 11 5 16 -7 10 6 12 29
3 9 -3 13 -11 10 -18 -3 -6 1 -3 9 7 22 27 27 21 28 -35 l2 -53 6 47 c7 49 21
76 21 41 0 -29 -28 -175 -35 -182 -3 -3 -3 15 1 39 12 77 -4 39 -20 -50 -18
-94 -44 -184 -88 -304 -18 -48 -28 -93 -26 -112 2 -18 1 -31 -3 -29 -3 3 -12
-8 -19 -23 -7 -15 -16 -35 -21 -44 -15 -30 -9 -44 7 -15 8 15 19 27 24 27 13
0 13 -13 -1 -27 -7 -7 -7 -13 -1 -17 12 -7 42 61 78 182 l28 92 123 0 124 0
-2 135 -1 135 -83 0 -84 0 5 38 c9 62 9 62 74 62 l60 0 0 63 0 62 -123 0 c-67
0 -159 -1 -204 -3z m266 -34 c12 19 41 3 41 -23 0 -28 -16 -40 -47 -37 -11 2
-24 -2 -28 -7 -14 -23 -26 -9 -22 27 5 54 16 70 34 46 11 -14 16 -16 22 -6z
m-113 -218 c0 -16 -5 -25 -9 -21 -5 5 -6 18 -2 30 9 29 13 26 11 -9z m54 -7
c8 -19 14 -23 18 -14 2 7 -1 17 -7 20 -7 4 2 8 18 8 17 0 28 -5 24 -10 -4 -6
-1 -7 8 -1 15 10 58 13 60 4 1 -3 2 -19 3 -37 1 -27 -1 -30 -13 -20 -12 10
-13 9 -2 -10 6 -13 9 -23 5 -23 -3 0 -1 -7 6 -15 14 -17 0 -21 -16 -5 -8 8
-14 7 -22 -3 -9 -11 -7 -13 11 -13 12 1 22 -5 23 -11 1 -7 3 -14 4 -15 7 -8 6
-48 -1 -48 -5 0 -8 10 -6 21 1 12 -3 24 -9 26 -7 2 -12 -2 -11 -9 0 -7 -1 -22
-1 -32 -2 -20 -2 -20 -17 0 -15 19 -16 19 -13 -1 3 -18 -3 -20 -54 -22 -32 -1
-61 3 -64 9 -4 6 -10 5 -15 -3 -19 -31 -18 2 2 62 12 35 23 73 25 84 2 11 7
35 10 53 8 39 17 41 34 5z m-65 -60 c-4 -58 -4 -58 -17 -44 -9 10 -10 15 -2
18 6 2 9 15 6 28 -2 14 0 25 5 25 6 0 9 -12 8 -27z m-25 -89 c-6 -6 -7 -13 -4
-16 3 -3 -4 -23 -15 -44 -12 -21 -21 -31 -21 -22 0 9 5 20 10 23 6 4 8 11 5
16 -4 5 -1 25 6 44 8 22 16 30 20 23 5 -7 4 -17 -1 -24z m-415 -54 c3 -5 -1
-10 -9 -10 -9 0 -16 5 -16 10 0 6 4 10 9 10 6 0 13 -4 16 -10z"/>
<path d="M1905 770 c-4 -6 -11 -7 -17 -4 -7 4 -8 2 -4 -4 10 -16 23 -15 30 3
6 17 0 20 -9 5z"/>
<path d="M1826 531 c-4 -7 -5 -15 -2 -18 9 -9 19 4 14 18 -4 11 -6 11 -12 0z"/>
<path d="M1880 521 c14 -28 12 -36 -5 -21 -12 10 -15 10 -15 -3 0 -8 -6 -17
-12 -20 -7 -2 -1 -4 14 -3 16 0 28 5 28 9 0 5 5 5 12 1 7 -4 8 -3 4 4 -4 7 -2
12 4 12 6 0 8 5 5 10 -4 6 -11 7 -17 4 -7 -5 -9 -1 -5 9 4 11 1 17 -9 17 -11
0 -12 -4 -4 -19z"/>
<path d="M1873 443 c-15 -5 -17 -23 -4 -23 5 0 11 7 15 15 3 8 4 15 3 14 -1 0
-8 -3 -14 -6z"/>
<path d="M1810 420 c-13 -8 -12 -10 3 -10 9 0 17 5 17 10 0 12 -1 12 -20 0z"/>
<path d="M1868 403 c7 -3 16 -2 19 1 4 3 -2 6 -13 5 -11 0 -14 -3 -6 -6z"/>
<path d="M1801 386 c-9 -11 -8 -15 5 -20 24 -9 31 -7 14 4 -13 9 -13 11 0 20
8 5 10 10 4 10 -6 0 -17 -6 -23 -14z"/>
<path d="M1866 382 c-3 -6 -1 -14 5 -17 15 -10 25 3 12 16 -7 7 -13 7 -17 1z"/>
<path d="M986 783 c7 -45 71 -211 89 -233 7 -8 18 -33 25 -55 7 -22 16 -44 20
-50 35 -47 0 -184 -82 -319 -51 -85 -64 -122 -23 -66 29 39 68 61 58 32 -4 -9
-11 -20 -17 -24 -8 -5 -7 -8 1 -8 16 0 88 135 109 206 32 109 18 183 -69 364
-22 47 -46 108 -52 135 -10 44 -15 50 -39 53 -26 3 -27 2 -20 -35z m54 -85 c0
-5 -4 -8 -10 -8 -5 0 -10 10 -10 23 0 18 2 19 10 7 5 -8 10 -18 10 -22z m50
-109 c0 -6 -4 -7 -10 -4 -5 3 -10 11 -10 16 0 6 5 7 10 4 6 -3 10 -11 10 -16z"/>
<path d="M1093 768 c27 -64 59 -118 70 -118 4 0 7 -9 7 -20 0 -10 8 -24 19
-29 23 -13 32 -45 17 -62 -9 -11 -8 -11 5 -1 9 6 19 9 22 5 4 -3 7 -2 7 3 0 6
-5 15 -12 22 -7 7 -8 12 -2 12 5 0 2 5 -6 10 -9 6 -10 10 -3 10 6 0 19 -10 27
-22 11 -16 12 -26 4 -41 -13 -25 12 -48 43 -40 14 4 18 1 14 -9 -4 -9 2 -14
15 -15 19 -2 19 -1 0 19 -12 13 -25 18 -37 14 -17 -6 -17 -5 -1 7 18 14 15 28
-5 23 -7 -2 -9 -1 -4 1 10 6 9 31 -1 35 -13 5 -85 108 -76 108 4 0 -1 9 -12
21 -10 11 -26 42 -34 67 -13 42 -19 47 -47 50 l-32 3 22 -53z m82 -86 c-3 -3
-11 0 -18 7 -9 10 -8 11 6 5 10 -3 15 -9 12 -12z m35 -62 c0 -5 -2 -10 -4 -10
-3 0 -8 5 -11 10 -3 6 -1 10 4 10 6 0 11 -4 11 -10z"/>
<path d="M1195 809 c4 -6 13 -8 19 -6 7 3 31 2 54 -3 24 -4 45 -3 51 3 6 6 15
-1 26 -19 l16 -29 -6 28 c-3 15 -1 27 5 27 5 0 10 -9 10 -20 0 -11 5 -20 11
-20 5 0 7 5 3 11 -3 6 0 15 7 20 18 11 32 11 25 0 -8 -12 3 -41 15 -41 6 0 5
9 -1 20 -6 11 -8 21 -5 21 3 1 9 2 14 3 5 0 13 4 17 9 4 4 -54 7 -130 7 -95 0
-135 -3 -131 -11z"/>
<path d="M1466 804 c-9 -24 -7 -27 9 -10 16 15 49 11 39 -5 -3 -5 0 -9 5 -9 6
0 11 9 11 20 0 15 -7 20 -29 20 -17 0 -31 -6 -35 -16z"/>
<path d="M1205 780 c-3 -5 -1 -10 4 -10 6 0 11 5 11 10 0 6 -2 10 -4 10 -3 0
-8 -4 -11 -10z"/>
<path d="M1249 770 c-4 -33 -3 -44 7 -47 7 -2 9 8 6 27 -4 30 -11 40 -13 20z"/>
<path d="M1275 771 c-3 -5 -1 -12 5 -16 5 -3 10 1 10 9 0 18 -6 21 -15 7z"/>
<path d="M1670 771 c0 -5 5 -13 10 -16 6 -3 10 -2 10 4 0 5 -4 13 -10 16 -5 3
-10 2 -10 -4z"/>
<path d="M1315 750 c-3 -5 1 -10 9 -10 9 0 16 5 16 10 0 6 -4 10 -9 10 -6 0
-13 -4 -16 -10z"/>
<path d="M1495 739 l-30 -20 30 7 c36 8 38 10 34 23 -3 6 -16 2 -34 -10z"/>
<path d="M1701 726 c-6 -7 -21 -12 -34 -11 -19 2 -23 -2 -24 -29 -1 -27 -1
-28 6 -7 3 14 13 27 20 29 9 3 11 0 7 -7 -4 -7 -2 -10 5 -9 7 2 15 -6 17 -16
3 -14 0 -17 -11 -13 -11 4 -14 1 -10 -9 4 -10 9 -12 18 -4 9 8 14 6 19 -5 3
-8 11 -15 17 -15 7 0 5 8 -6 20 -12 13 -14 20 -6 20 16 0 9 25 -7 26 -7 1 -15
2 -19 3 -3 0 2 10 12 21 10 11 16 20 13 20 -3 0 -11 -6 -17 -14z"/>
<path d="M860 720 c0 -6 7 -10 15 -10 8 0 15 2 15 4 0 2 -7 6 -15 10 -8 3 -15
1 -15 -4z"/>
<path d="M915 720 c-16 -7 -17 -9 -3 -9 9 -1 20 4 23 9 7 11 7 11 -20 0z"/>
<path d="M1753 715 c0 -8 4 -12 9 -9 4 3 8 9 8 15 0 5 -4 9 -8 9 -5 0 -9 -7
-9 -15z"/>
<path d="M1400 700 c0 -11 2 -20 4 -20 2 0 6 9 9 20 3 11 1 20 -4 20 -5 0 -9
-9 -9 -20z"/>
<path d="M1542 700 c0 -14 2 -19 5 -12 2 6 2 18 0 25 -3 6 -5 1 -5 -13z"/>
<path d="M1462 698 c5 -15 28 -23 28 -10 0 5 -7 13 -16 16 -10 4 -14 1 -12 -6z"/>
<path d="M895 689 c56 -11 97 -11 90 1 -3 6 -34 9 -68 9 -59 -1 -60 -2 -22
-10z"/>
<path d="M1440 680 c0 -5 5 -10 11 -10 5 0 7 5 4 10 -3 6 -8 10 -11 10 -2 0
-4 -4 -4 -10z"/>
<path d="M1395 660 c-3 -5 -1 -10 4 -10 6 0 11 5 11 10 0 6 -2 10 -4 10 -3 0
-8 -4 -11 -10z"/>
<path d="M1543 635 c0 -22 2 -30 4 -17 2 12 2 30 0 40 -3 9 -5 -1 -4 -23z"/>
<path d="M1641 643 c-1 -17 16 -25 25 -12 4 7 3 9 -4 5 -5 -3 -13 0 -15 6 -4
9 -6 10 -6 1z"/>
<path d="M1248 633 c7 -3 16 -2 19 1 4 3 -2 6 -13 5 -11 0 -14 -3 -6 -6z"/>
<path d="M1388 628 c5 -5 16 -8 23 -6 8 3 3 7 -10 11 -17 4 -21 3 -13 -5z"/>
<path d="M1290 613 c0 -15 19 -37 26 -31 3 4 -1 14 -10 23 -9 9 -16 13 -16 8z"/>
<path d="M1685 610 c-3 -5 -1 -10 4 -10 6 0 11 5 11 10 0 6 -2 10 -4 10 -3 0
-8 -4 -11 -10z"/>
<path d="M1418 603 c7 -3 16 -2 19 1 4 3 -2 6 -13 5 -11 0 -14 -3 -6 -6z"/>
<path d="M859 581 c0 -9 -2 -24 -4 -33 -4 -22 4 -22 29 -3 11 8 14 15 8 15 -7
0 -12 4 -12 9 0 5 18 9 40 9 29 1 38 -3 33 -11 -3 -7 4 -3 16 8 19 16 24 17
31 5 6 -8 10 -19 10 -25 0 -14 20 18 20 33 0 10 -21 13 -85 11 -70 -1 -85 -4
-86 -18z"/>
<path d="M1459 598 c-7 -14 -4 -48 5 -48 6 0 11 11 11 25 0 20 -10 34 -16 23z"/>
<path d="M1657 575 c18 -25 33 -32 33 -16 0 5 -7 12 -16 15 -8 3 -12 10 -9 16
3 5 -1 10 -10 10 -14 0 -14 -3 2 -25z"/>
<path d="M1715 592 c3 -3 -1 -12 -8 -21 -10 -14 -10 -14 4 -4 9 7 19 10 22 6
4 -3 7 0 7 9 0 8 -7 15 -15 15 -8 0 -13 -3 -10 -5z"/>
<path d="M981 561 c-8 -5 -9 -11 -3 -15 5 -3 12 1 16 9 6 17 6 18 -13 6z"/>
<path d="M911 534 c-13 -13 -21 -27 -18 -31 4 -3 7 -1 7 5 0 7 5 12 11 12 6 0
8 -8 5 -17 -5 -15 -4 -15 9 1 8 11 15 28 15 38 0 22 1 22 -29 -8z"/>
<path d="M1497 549 c7 -7 15 -10 18 -7 3 3 -2 9 -12 12 -14 6 -15 5 -6 -5z"/>
<path d="M1723 548 c1 -7 -4 -12 -12 -10 -12 3 -12 0 -1 -13 7 -8 9 -19 5 -23
-4 -4 -10 -1 -12 6 -3 6 -9 12 -15 12 -6 0 -3 -9 7 -20 10 -11 13 -20 7 -20
-7 0 -9 -7 -5 -17 5 -13 2 -15 -11 -10 -10 4 -22 7 -27 7 -6 0 -7 5 -4 10 3 6
1 10 -4 10 -19 0 -12 -22 9 -27 11 -3 20 -12 20 -19 0 -17 -12 -18 -30 -1 -12
10 -12 9 -1 -5 7 -10 20 -18 28 -18 10 0 11 -4 3 -19 -12 -24 -13 -31 0 -31 5
0 12 17 16 38 4 20 15 61 25 91 22 62 23 71 9 71 -5 0 -9 -6 -7 -12z"/>
<path d="M1170 541 c0 -5 5 -13 10 -16 6 -3 10 -2 10 4 0 5 -4 13 -10 16 -5 3
-10 2 -10 -4z"/>
<path d="M1378 528 c2 -10 10 -22 17 -28 9 -8 11 -4 7 16 -4 24 -2 26 17 21
11 -3 19 -1 16 4 -3 4 -18 7 -34 6 -21 -1 -27 -6 -23 -19z"/>
<path d="M1651 534 c0 -11 3 -14 6 -6 3 7 2 16 -1 19 -3 4 -6 -2 -5 -13z"/>
<path d="M965 520 c3 -5 8 -10 11 -10 2 0 4 5 4 10 0 6 -5 10 -11 10 -5 0 -7
-4 -4 -10z"/>
<path d="M862 507 c-16 -19 3 -46 20 -29 9 9 9 12 0 12 -6 0 -9 7 -6 15 7 18
0 19 -14 2z"/>
<path d="M1200 512 c0 -15 18 -34 29 -31 7 3 3 11 -9 21 -11 10 -20 14 -20 10z"/>
<path d="M1461 507 c-6 -8 -8 -17 -4 -20 12 -13 22 -7 20 13 -2 24 -1 24 -16
7z"/>
<path d="M1498 515 c-7 -8 3 -55 12 -55 4 0 11 7 14 16 4 10 2 13 -6 8 -7 -5
-9 0 -6 14 6 20 -2 29 -14 17z"/>
<path d="M1013 498 c2 -7 10 -12 16 -10 6 1 11 -5 11 -15 0 -9 3 -14 6 -10 10
10 -7 47 -23 47 -8 0 -13 -6 -10 -12z"/>
<path d="M1655 500 c3 -5 11 -10 16 -10 6 0 7 5 4 10 -3 6 -11 10 -16 10 -6 0
-7 -4 -4 -10z"/>
<path d="M976 487 c3 -10 9 -15 12 -12 3 3 0 11 -7 18 -10 9 -11 8 -5 -6z"/>
<path d="M918 482 c-10 -2 -18 -8 -18 -13 0 -11 11 -11 30 1 18 11 11 18 -12
12z"/>
<path d="M1067 470 c3 -11 7 -20 9 -20 2 0 4 9 4 20 0 11 -4 20 -9 20 -5 0 -7
-9 -4 -20z"/>
<path d="M1000 466 c0 -8 5 -18 10 -21 6 -3 10 1 10 9 0 8 -4 18 -10 21 -5 3
-10 -1 -10 -9z"/>
<path d="M1271 467 c9 -7 18 -21 20 -31 2 -11 11 -21 19 -23 10 -3 11 -2 4 4
-6 4 -14 20 -18 36 -4 17 -13 27 -24 27 -16 -1 -16 -2 -1 -13z"/>
<path d="M853 395 l-2 -65 130 0 c112 0 129 2 129 16 0 11 -6 15 -20 11 -11
-3 -27 1 -35 10 -11 10 -15 11 -15 2 0 -7 -3 -9 -7 -6 -3 4 -12 -1 -20 -11
-13 -15 -14 -15 -10 -1 4 13 -1 16 -21 14 -15 -1 -38 -6 -52 -12 -28 -12 -60
2 -60 26 0 12 3 12 18 -1 18 -16 52 -20 52 -7 0 14 -18 20 -22 7 -3 -7 -10 -8
-17 -4 -11 7 -11 10 0 18 11 6 9 8 -6 6 -16 -2 -21 3 -23 30 -5 55 -17 35 -19
-33z"/>
<path d="M933 450 c-27 -11 -31 -25 -5 -16 14 5 14 4 -2 -9 -11 -8 -15 -15
-10 -15 6 0 20 11 32 25 23 27 20 29 -15 15z"/>
<path d="M1205 435 c0 -12 5 -22 10 -22 6 0 19 -4 30 -9 19 -7 19 -7 3 10 -10
9 -18 21 -18 26 0 4 -6 10 -12 13 -8 3 -13 -4 -13 -18z"/>
<path d="M1247 449 c7 -7 15 -10 18 -7 3 3 -2 9 -12 12 -14 6 -15 5 -6 -5z"/>
<path d="M1333 453 c-7 -2 -13 -9 -13 -14 0 -6 5 -7 12 -3 8 5 9 2 5 -9 -3
-10 -2 -17 3 -17 6 0 10 11 10 25 0 14 -1 25 -2 24 -2 0 -9 -3 -15 -6z"/>
<path d="M1450 445 c-11 -13 -11 -18 0 -28 10 -9 11 -9 6 1 -12 20 4 35 22 20
15 -12 16 -11 3 5 -16 21 -16 21 -31 2z"/>
<path d="M1031 436 c-8 -10 -9 -16 -1 -21 6 -3 8 -11 5 -16 -9 -13 7 -11 28 5
9 7 17 19 17 27 -1 10 -4 9 -11 -3 -14 -25 -32 -23 -19 2 12 23 -2 27 -19 6z"/>
<path d="M1515 440 c3 -5 8 -10 11 -10 2 0 4 5 4 10 0 6 -5 10 -11 10 -5 0 -7
-4 -4 -10z"/>
<path d="M990 420 c23 -20 30 -24 30 -16 0 9 -32 36 -42 36 -6 0 -1 -9 12 -20z"/>
<path d="M1487 416 c-10 -8 -14 -16 -10 -19 5 -3 14 3 21 14 14 22 13 23 -11
5z"/>
<path d="M960 396 c0 -2 7 -7 16 -10 8 -3 12 -2 9 4 -6 10 -25 14 -25 6z"/>
<path d="M1516 385 c4 -8 10 -15 15 -15 4 0 6 7 3 15 -4 8 -10 15 -15 15 -4 0
-6 -7 -3 -15z"/>
<path d="M1400 370 c0 -5 5 -10 10 -10 6 0 10 5 10 10 0 6 -4 10 -10 10 -5 0
-10 -4 -10 -10z"/>
<path d="M1636 354 c-9 -23 -8 -24 19 -24 29 0 31 6 11 26 -18 18 -22 18 -30
-2z"/>
</g>
</svg>
