<?xml version="1.0" standalone="no"?>
<!DOCTYPE svg PUBLIC "-//W3C//DTD SVG 20010904//EN"
 "http://www.w3.org/TR/2001/REC-SVG-20010904/DTD/svg10.dtd">
<svg version="1.0" xmlns="http://www.w3.org/2000/svg"
 width="300.000000pt" height="300.000000pt" viewBox="0 0 300.000000 300.000000"
 preserveAspectRatio="xMidYMid meet">
<metadata>
Created by potrace 1.10, written by Peter Selinger 2001-2011
</metadata>
<g transform="translate(0.000000,300.000000) scale(0.100000,-0.100000)"
fill="#000000" stroke="none">
<path d="M1543 2864 c-7 -3 -13 -12 -13 -20 0 -11 20 -14 98 -15 53 0 139 -4
190 -7 91 -7 92 -7 92 16 0 22 -1 22 -142 22 -79 0 -159 2 -178 5 -19 2 -41 2
-47 -1z m222 -24 c3 -6 -1 -7 -9 -4 -18 7 -21 14 -7 14 6 0 13 -4 16 -10z
m118 -7 c-7 -2 -19 -2 -25 0 -7 3 -2 5 12 5 14 0 19 -2 13 -5z"/>
<path d="M916 2841 c-3 -5 1 -12 10 -15 8 -3 12 -2 9 3 -3 5 3 12 12 14 14 4
13 5 -4 6 -12 0 -24 -3 -27 -8z"/>
<path d="M974 2843 c4 -5 31 -9 59 -9 35 -1 45 1 32 7 -26 10 -101 11 -91 2z"/>
<path d="M1118 2832 c12 -8 72 -4 72 4 0 2 -19 4 -42 4 -26 0 -38 -4 -30 -8z"/>
<path d="M1201 2836 c2 -2 18 -6 34 -10 22 -5 26 -4 15 4 -14 9 -59 15 -49 6z"/>
<path d="M1280 2829 c0 -5 10 -9 23 -9 12 0 33 -3 47 -7 14 -3 23 -3 20 0 -10
11 -90 25 -90 16z"/>
<path d="M1395 2824 c48 -8 115 -9 115 -2 0 5 -30 7 -67 7 -38 -1 -59 -3 -48
-5z"/>
<path d="M869 2803 c-13 -16 -12 -17 4 -4 9 7 17 15 17 17 0 8 -8 3 -21 -13z"/>
<path d="M1933 2813 c9 -2 23 -2 30 0 6 3 -1 5 -18 5 -16 0 -22 -2 -12 -5z"/>
<path d="M1985 2800 c3 -5 8 -10 11 -10 2 0 4 5 4 10 0 6 -5 10 -11 10 -5 0
-7 -4 -4 -10z"/>
<path d="M2010 2803 c0 -5 27 -8 59 -8 33 0 63 3 67 8 4 4 -23 7 -59 7 -37 0
-67 -3 -67 -7z"/>
<path d="M2160 2799 c0 -5 10 -9 23 -10 12 -1 37 -2 56 -4 48 -4 17 11 -36 18
-24 3 -43 1 -43 -4z"/>
<path d="M2312 2761 c2 -17 1 -29 -4 -28 -4 1 -28 -41 -53 -93 l-45 -95 0
-256 c0 -246 -1 -258 -24 -315 -32 -79 -35 -154 -36 -839 l0 -560 -62 2 c-35
2 -151 8 -258 13 -107 6 -242 13 -300 16 -58 2 -123 7 -145 9 -22 3 -74 7
-115 10 -190 13 -238 17 -280 21 -229 21 -349 34 -356 36 -5 2 -10 -1 -12 -7
-1 -6 38 -13 95 -18 54 -4 119 -11 145 -15 26 -5 51 -5 56 0 4 4 9 -11 11 -34
1 -23 3 -43 4 -44 13 -9 57 -12 57 -4 0 5 -9 10 -20 10 -16 0 -20 7 -20 31 0
25 3 29 14 20 8 -7 27 -8 47 -5 l34 7 -19 -22 c-11 -11 -16 -24 -11 -29 4 -4
10 -1 12 6 8 20 22 14 16 -8 -3 -11 0 -20 6 -20 6 0 11 10 11 22 0 21 1 21 13
3 9 -11 16 -14 20 -8 4 6 0 16 -8 23 -22 19 -18 32 8 24 12 -4 54 -7 92 -8
l70 -1 1 -35 c0 -19 4 -33 10 -30 5 3 8 15 6 28 -4 30 5 28 23 -8 21 -40 35
-38 35 6 0 29 3 34 18 30 9 -3 62 -7 117 -11 128 -7 247 -15 310 -20 28 -3 76
-5 107 -5 32 -1 60 -5 63 -10 3 -5 19 -5 38 1 41 12 50 11 42 -1 -3 -6 -1 -10
4 -10 6 0 11 5 11 10 0 6 27 10 60 10 l59 0 15 53 c26 93 27 107 14 105 -9 -2
-13 12 -13 47 0 28 -4 55 -8 62 -4 6 -3 14 3 18 6 4 7 12 3 18 -9 15 -12 47
-4 47 9 0 5 115 -4 130 -6 10 -4 12 10 6 18 -7 18 -6 0 14 -14 15 -15 20 -4
20 12 0 12 2 0 9 -9 6 -10 10 -2 16 9 5 9 11 -1 23 -7 9 -8 13 -3 10 6 -4 10
30 10 95 0 56 -4 105 -10 110 -6 4 -5 10 4 16 8 5 9 11 3 15 -5 3 -6 22 -3 43
4 21 4 49 1 63 -4 14 -1 40 6 58 7 18 9 30 4 27 -6 -4 -10 44 -10 128 0 147 8
229 21 221 5 -3 10 3 11 13 0 10 2 23 3 28 2 6 3 18 4 28 0 10 4 16 9 14 4 -3
6 32 4 76 -2 49 1 77 6 69 7 -10 11 -10 21 1 9 12 8 15 -6 13 -16 -1 -18 9
-19 79 0 48 4 83 10 87 8 5 7 8 -2 8 -18 0 -15 188 4 207 7 7 10 21 7 29 -3 9
0 20 8 25 8 4 15 13 15 19 1 5 2 15 3 21 0 5 5 8 10 5 5 -4 7 3 4 14 -3 11 0
20 6 20 6 0 11 12 11 28 1 24 2 25 11 8 6 -10 9 -36 6 -57 -3 -22 -1 -37 4
-33 5 3 9 26 9 51 0 26 3 43 7 40 12 -12 11 -227 -1 -220 -8 5 -8 3 0 -8 11
-14 11 -68 -1 -139 -3 -19 -6 -61 -8 -92 -1 -32 -4 -58 -8 -58 -9 0 -61 -81
-56 -87 3 -2 16 14 30 37 14 24 28 37 31 31 4 -6 2 -11 -4 -11 -6 0 -8 -10 -3
-27 3 -16 8 -194 9 -398 2 -360 8 -521 20 -557 3 -10 1 -18 -4 -18 -5 0 -7
-12 -4 -26 3 -16 -1 -30 -9 -35 -12 -8 -12 -10 0 -18 11 -7 11 -9 0 -13 -12
-4 -11 -8 1 -23 9 -11 10 -16 3 -11 -7 4 -13 2 -13 -3 0 -6 5 -11 10 -11 6 0
10 -5 10 -11 0 -5 -4 -7 -10 -4 -5 3 -10 2 -10 -4 0 -5 6 -12 13 -15 10 -5 10
-7 0 -12 -7 -3 -13 -10 -13 -15 0 -6 6 -7 13 -3 9 6 9 4 0 -7 -15 -16 -17 -59
-3 -59 6 0 10 -5 10 -11 0 -5 -4 -7 -10 -4 -6 4 -10 -26 -11 -82 -1 -90 -8
-135 -21 -134 -19 2 -20 0 -8 -14 10 -13 9 -15 -9 -15 -11 0 -21 -4 -21 -10 0
-5 7 -10 15 -10 8 0 15 -4 15 -10 0 -5 -7 -10 -16 -10 -13 0 -14 -3 -4 -15 10
-12 9 -16 -2 -20 -19 -7 -41 -3 -50 10 -4 6 -8 2 -8 -7 0 -13 8 -18 30 -18 17
0 30 -5 30 -11 0 -7 -12 -10 -30 -7 -21 3 -30 0 -30 -10 0 -8 6 -12 13 -9 8 3
20 1 28 -4 11 -6 11 -11 2 -20 -9 -9 -16 -9 -26 -1 -14 12 -27 7 -27 -11 0 -5
6 -7 13 -4 24 9 40 -8 22 -23 -12 -10 -15 -10 -15 0 0 8 -3 10 -7 6 -4 -4 -8
-35 -9 -69 -1 -34 -2 -79 -3 -100 l-1 -39 -82 2 c-46 1 -94 1 -108 0 -35 -4
72 -18 142 -19 56 -1 56 -1 63 32 4 17 38 148 76 290 l69 258 0 289 c0 187 -4
290 -10 290 -14 0 -14 909 1 947 6 15 13 101 16 190 6 155 5 164 -18 217 -26
61 -44 73 -37 27z m25 -1963 c-3 -8 -6 -5 -6 6 -1 11 2 17 5 13 3 -3 4 -12 1
-19z m-160 -120 c-3 -8 -6 -5 -6 6 -1 11 2 17 5 13 3 -3 4 -12 1 -19z m-867
-90 c0 -19 -2 -20 -10 -8 -13 19 -13 30 0 30 6 0 10 -10 10 -22z"/>
<path d="M1056 2749 c-19 -19 -19 -19 2 -19 15 0 22 6 22 20 0 24 0 24 -24 -1z"/>
<path d="M1333 2753 c-4 -10 -11 -21 -17 -25 -6 -5 -2 -8 10 -8 17 0 22 6 20
25 -1 30 -4 31 -13 8z"/>
<path d="M820 2745 c-11 -13 -10 -14 4 -9 9 3 16 10 16 15 0 13 -6 11 -20 -6z"/>
<path d="M1128 2723 c7 -3 16 -2 19 1 4 3 -2 6 -13 5 -11 0 -14 -3 -6 -6z"/>
<path d="M1428 2713 c7 -3 16 -2 19 1 4 3 -2 6 -13 5 -11 0 -14 -3 -6 -6z"/>
<path d="M1682 2693 c-85 -124 -102 -152 -101 -173 l0 -25 15 28 c19 35 27 34
22 -2 -2 -17 -1 -28 4 -25 5 3 8 20 6 38 -1 22 8 50 28 82 46 76 55 94 46 94
-4 0 -13 -8 -20 -17z"/>
<path d="M1805 2690 c3 -5 8 -10 11 -10 2 0 4 5 4 10 0 6 -5 10 -11 10 -5 0
-7 -4 -4 -10z"/>
<path d="M1915 2687 c-6 -7 -29 -41 -51 -77 -48 -75 -61 -115 -40 -123 9 -4
12 0 9 11 -2 9 16 48 41 86 25 39 43 73 40 78 -3 4 -1 8 4 8 6 0 12 7 16 15 6
18 -5 19 -19 2z"/>
<path d="M2032 2681 c-7 -4 -31 -39 -53 -77 -40 -67 -55 -114 -38 -114 5 0 9
5 9 10 0 6 23 49 51 96 50 83 57 101 31 85z"/>
<path d="M1743 2611 c-24 -38 -43 -79 -43 -92 l1 -24 14 26 c7 14 30 50 49 79
35 52 45 80 29 80 -5 -1 -27 -32 -50 -69z"/>
<path d="M1318 2583 c7 -3 16 -2 19 1 4 3 -2 6 -13 5 -11 0 -14 -3 -6 -6z"/>
<path d="M701 2544 c0 -11 3 -14 6 -6 3 7 2 16 -1 19 -3 4 -6 -2 -5 -13z"/>
<path d="M2320 2534 c0 -14 4 -23 9 -20 5 3 7 15 4 26 -7 28 -13 25 -13 -6z"/>
<path d="M1737 2526 c-4 -15 -6 -31 -2 -34 10 -10 16 6 13 35 l-3 28 -8 -29z"/>
<path d="M1858 2520 c-3 -16 -1 -30 4 -30 4 0 8 14 8 30 0 17 -2 30 -4 30 -2
0 -6 -13 -8 -30z"/>
<path d="M958 2529 c-30 -17 -39 -44 -24 -73 23 -45 57 -68 90 -62 16 3 33 6
37 6 5 0 14 11 19 25 26 67 -60 141 -122 104z m40 -26 c4 -6 21 -19 37 -29 40
-26 43 -44 6 -44 -17 0 -33 5 -36 10 -3 6 -10 10 -16 10 -5 0 -9 -4 -9 -10 0
-5 3 -9 8 -8 4 0 18 -4 32 -10 l25 -11 -26 0 c-15 -1 -32 6 -39 14 -7 8 -16
13 -19 10 -4 -2 -8 1 -9 8 0 7 -4 23 -7 37 l-7 25 22 -25 c19 -22 20 -22 11
-3 -6 12 -11 26 -11 31 0 13 30 9 38 -5z m44 3 c3 2 8 -2 12 -11 4 -13 2 -14
-14 -5 -10 5 -22 16 -26 23 -6 9 -5 9 8 0 8 -7 17 -10 20 -7z"/>
<path d="M1983 2505 c0 -22 2 -30 4 -17 2 12 2 30 0 40 -3 9 -5 -1 -4 -23z"/>
<path d="M1250 2523 c-56 -21 -64 -66 -20 -108 24 -23 40 -30 71 -30 74 0 89
62 28 118 -28 26 -48 31 -79 20z m38 -43 c17 -16 38 -30 46 -30 10 0 16 -9 16
-21 0 -18 -4 -20 -32 -14 -18 4 -46 21 -61 38 -23 26 -26 27 -15 7 19 -36 34
-50 55 -51 17 -1 17 -2 0 -6 -19 -5 -97 39 -79 45 6 2 8 10 6 17 -6 13 14 44
28 45 3 0 20 -13 36 -30z m37 10 c10 -11 14 -20 8 -20 -5 0 -18 9 -28 20 -10
11 -14 20 -8 20 5 0 18 -9 28 -20z"/>
<path d="M2320 2445 c0 -8 2 -15 4 -15 2 0 6 7 10 15 3 8 1 15 -4 15 -6 0 -10
-7 -10 -15z"/>
<path d="M705 2439 c-4 -6 -5 -12 -2 -15 2 -3 7 2 10 11 7 17 1 20 -8 4z"/>
<path d="M2298 2355 c-11 -49 -9 -150 3 -138 5 5 9 44 7 89 -2 55 -5 70 -10
49z"/>
<path d="M1785 2348 c-16 -5 -92 -12 -167 -15 -107 -5 -138 -9 -138 -19 0 -17
166 -19 269 -4 70 10 74 12 69 33 -2 10 -10 12 -33 5z"/>
<path d="M1830 2339 c0 -14 16 -23 63 -37 98 -31 147 -37 147 -19 0 10 -15 18
-42 22 -24 4 -71 18 -105 30 -60 21 -63 22 -63 4z"/>
<path d="M920 2280 c0 -28 4 -40 14 -40 8 0 21 -3 30 -6 9 -3 16 -1 16 5 0 6
-9 11 -20 11 -16 0 -20 7 -20 35 0 19 -4 35 -10 35 -5 0 -10 -18 -10 -40z"/>
<path d="M1020 2280 c-12 -16 -17 -30 -11 -30 5 0 15 8 20 18 9 14 10 13 11
-10 0 -16 5 -28 11 -28 6 0 8 9 4 20 -8 24 10 27 19 4 4 -9 9 -14 12 -11 7 7
-27 67 -37 67 -4 0 -17 -13 -29 -30z"/>
<path d="M1267 2293 c-4 -3 -7 -11 -7 -17 0 -6 5 -5 12 2 16 16 28 15 28 -2 0
-7 -10 -20 -22 -29 -26 -17 -24 -22 15 -31 16 -4 27 -2 27 4 0 5 -10 10 -22
10 l-23 0 24 19 c16 12 22 24 18 35 -6 16 -38 22 -50 9z"/>
<path d="M1478 2246 c-4 -51 18 -67 25 -18 l4 27 2 -27 c1 -34 14 -36 29 -5
11 22 11 22 11 1 1 -28 32 -40 47 -20 14 20 24 20 24 1 0 -9 9 -15 25 -15 17
0 25 6 25 18 1 16 1 16 11 0 5 -10 21 -18 34 -18 18 0 25 6 28 28 l4 27 2 -27
c0 -16 6 -28 11 -28 13 0 13 16 -2 57 -17 48 -38 43 -38 -9 0 -40 -1 -41 -17
-25 -15 15 -16 19 -4 26 22 14 5 41 -27 41 -26 0 -28 -2 -24 -37 5 -43 -14
-36 -20 7 -5 39 -35 38 -44 -2 l-7 -33 -9 33 c-10 37 -37 44 -39 10 -1 -22 -1
-22 -8 2 -4 14 -14 26 -23 28 -12 2 -17 -7 -20 -42z m136 -1 c3 -8 1 -15 -4
-15 -6 0 -10 7 -10 15 0 8 2 15 4 15 2 0 6 -7 10 -15z m76 11 c0 -3 -4 -8 -10
-11 -5 -3 -10 -1 -10 4 0 6 5 11 10 11 6 0 10 -2 10 -4z"/>
<path d="M1770 2255 c0 -14 5 -25 11 -25 5 0 9 -10 7 -22 -2 -12 3 -23 11 -26
10 -3 12 0 8 12 -4 10 -7 33 -7 52 0 24 -5 34 -15 34 -9 0 -15 -9 -15 -25z"/>
<path d="M1818 2225 c5 -53 22 -61 22 -10 0 19 5 35 10 35 6 0 10 -16 10 -35
0 -24 5 -35 15 -35 10 0 15 11 15 35 0 19 5 35 10 35 6 0 10 -16 10 -35 0 -31
3 -35 25 -35 14 0 25 5 25 10 0 6 -7 10 -15 10 -21 0 -19 18 3 23 16 4 16 5 0
6 -22 1 -24 21 -3 21 8 0 15 5 15 10 0 6 -31 10 -73 10 l-72 0 3 -45z"/>
<path d="M1970 2221 c0 -44 16 -64 23 -29 l4 23 8 -22 c5 -16 15 -21 36 -21
32 1 41 18 9 18 -29 0 -42 31 -23 52 15 16 15 18 0 18 -8 0 -18 -6 -21 -12 -5
-10 -7 -10 -12 0 -12 25 -24 11 -24 -27z"/>
<path d="M2297 2093 c-8 -15 -7 -184 1 -179 8 5 15 186 7 186 -2 0 -6 -3 -8
-7z"/>
<path d="M2246 2065 c-3 -9 -5 -35 -5 -58 2 -40 2 -39 9 13 7 59 6 71 -4 45z"/>
<path d="M635 2000 c-3 -6 1 -7 9 -4 18 7 21 14 7 14 -6 0 -13 -4 -16 -10z"/>
<path d="M2238 1839 c-2 -49 0 -98 3 -107 4 -9 7 31 8 91 1 59 0 107 -3 107
-3 0 -6 -41 -8 -91z"/>
<path d="M612 1870 c0 -19 2 -27 5 -17 2 9 2 25 0 35 -3 9 -5 1 -5 -18z"/>
<path d="M2205 1890 c3 -5 8 -10 11 -10 2 0 4 5 4 10 0 6 -5 10 -11 10 -5 0
-7 -4 -4 -10z"/>
<path d="M2294 1885 c-4 -8 -4 -25 -1 -36 3 -12 -1 -39 -10 -61 -8 -21 -13
-41 -10 -44 3 -3 1 -19 -3 -35 -5 -16 -5 -29 0 -29 5 0 10 10 12 23 2 12 6 17
10 11 4 -6 0 -23 -8 -39 -8 -16 -13 -38 -11 -49 4 -19 4 -19 6 2 0 13 5 20 11
17 6 -4 4 -19 -5 -42 -8 -19 -15 -43 -14 -52 0 -9 5 -4 11 12 5 15 13 27 18
27 4 0 7 70 7 155 -1 85 -3 155 -4 155 -2 0 -6 -7 -9 -15z m-3 -138 c-13 -13
-15 1 -4 30 7 17 8 17 11 -1 2 -10 -1 -23 -7 -29z"/>
<path d="M982 1810 c0 -16 4 -30 9 -30 5 0 9 14 9 30 0 17 -4 30 -8 30 -5 0
-9 -13 -10 -30z"/>
<path d="M611 1784 c0 -11 3 -14 6 -6 3 7 2 16 -1 19 -3 4 -6 -2 -5 -13z"/>
<path d="M781 1751 c-1 -27 2 -32 11 -23 8 8 8 17 0 34 -10 22 -11 21 -11 -11z"/>
<path d="M817 1773 c-12 -11 -8 -23 8 -23 8 0 15 -5 15 -11 0 -6 -7 -9 -15 -5
-8 3 -15 1 -15 -4 0 -6 9 -10 20 -10 24 0 27 28 3 37 -15 6 -15 7 3 14 14 6
15 8 3 8 -9 1 -19 -2 -22 -6z"/>
<path d="M1060 1770 c0 -5 5 -10 11 -10 5 0 7 5 4 10 -3 6 -8 10 -11 10 -2 0
-4 -4 -4 -10z"/>
<path d="M1125 1750 c-3 -5 0 -7 7 -5 8 3 14 -2 15 -14 1 -14 -3 -18 -14 -14
-11 4 -14 2 -9 -5 14 -24 36 -13 36 18 0 30 -21 42 -35 20z"/>
<path d="M920 1739 c-56 -23 -100 -85 -100 -141 1 -88 76 -167 169 -176 54 -5
91 10 131 53 22 23 25 36 25 94 0 59 -4 72 -29 105 -47 62 -132 90 -196 65z
m102 -26 c9 -10 28 -26 43 -37 60 -41 68 -131 16 -180 -77 -74 -212 -14 -211
94 1 50 19 77 76 110 59 35 56 34 76 13z"/>
<path d="M984 1699 c-8 -13 -12 -189 -4 -189 3 0 11 4 19 9 14 9 15 30 11 174
0 19 -15 23 -26 6z"/>
<path d="M1576 1732 c-6 -10 -2 -39 7 -48 3 -4 13 -2 21 5 11 9 15 9 19 -1 3
-7 6 0 6 15 1 16 -3 26 -8 22 -5 -3 -12 -1 -16 5 -7 12 -22 13 -29 2z m21 -34
c-3 -8 -6 -5 -6 6 -1 11 2 17 5 13 3 -3 4 -12 1 -19z"/>
<path d="M1641 1698 c0 -22 1 -22 9 -3 9 20 9 20 10 0 1 -20 1 -20 9 0 8 20 8
20 13 0 5 -18 6 -18 7 3 1 17 -4 22 -24 22 -19 0 -25 -5 -24 -22z"/>
<path d="M1703 1704 c-3 -8 -3 -18 1 -21 3 -4 6 0 6 8 0 11 2 11 10 -1 7 -11
10 -12 10 -2 0 10 4 10 16 -2 17 -18 39 -22 29 -6 -3 6 -2 10 4 10 5 0 11 -5
13 -10 2 -6 9 -1 16 10 11 18 10 20 -20 17 -18 -2 -43 0 -56 5 -17 6 -24 4
-29 -8z"/>
<path d="M613 1655 c0 -27 2 -38 4 -22 2 15 2 37 0 50 -2 12 -4 0 -4 -28z"/>
<path d="M1587 1654 c-4 -4 -7 -17 -7 -28 1 -19 1 -20 11 -3 11 19 8 43 -4 31z"/>
<path d="M1170 1639 c0 -5 5 -7 10 -4 6 3 10 8 10 11 0 2 -4 4 -10 4 -5 0 -10
-5 -10 -11z"/>
<path d="M1606 1634 c-9 -24 -7 -31 4 -14 8 13 10 13 10 1 0 -12 3 -12 12 -3
15 15 28 15 28 1 0 -5 -4 -7 -10 -4 -5 3 -10 2 -10 -2 0 -5 16 -9 35 -10 31
-1 35 2 35 24 0 15 -4 22 -11 18 -16 -10 -69 -12 -69 -3 0 14 -18 9 -24 -8z"/>
<path d="M1742 1628 c-5 -21 -6 -21 -13 -2 -7 18 -8 18 -8 -2 -1 -18 6 -23 37
-26 20 -3 40 0 44 6 8 13 -11 38 -23 30 -5 -3 -9 0 -9 5 0 20 -22 11 -28 -11z
m23 -8 c3 -5 1 -10 -4 -10 -6 0 -11 5 -11 10 0 6 2 10 4 10 3 0 8 -4 11 -10z"/>
<path d="M2243 1585 c0 -33 2 -45 4 -27 2 18 2 45 0 60 -2 15 -4 0 -4 -33z"/>
<path d="M718 1595 c2 -14 8 -25 12 -25 4 0 5 11 2 25 -2 14 -8 25 -12 25 -4
0 -5 -11 -2 -25z"/>
<path d="M750 1610 c0 -5 6 -7 13 -4 8 3 13 -4 14 -17 1 -14 -3 -19 -13 -15
-8 3 -14 1 -14 -5 0 -25 35 -2 37 24 1 21 -3 27 -18 27 -10 0 -19 -4 -19 -10z"/>
<path d="M1186 1585 c-3 -9 0 -15 9 -15 8 0 15 -4 15 -10 0 -5 -8 -10 -17 -10
-15 0 -16 -2 -3 -10 9 -5 19 -5 27 2 11 9 11 14 -2 28 -13 14 -13 19 -3 23 9
4 8 6 -3 6 -9 1 -19 -6 -23 -14z"/>
<path d="M2287 1536 c-9 -21 -17 -53 -16 -70 0 -17 3 -24 6 -16 3 8 12 29 20
47 8 17 13 42 11 55 -4 20 -6 19 -21 -16z"/>
<path d="M614 1415 c0 -66 1 -92 3 -57 2 34 2 88 0 120 -2 31 -3 3 -3 -63z"/>
<path d="M785 1510 c-3 -5 -1 -10 4 -10 6 0 11 5 11 10 0 6 -2 10 -4 10 -3 0
-8 -4 -11 -10z"/>
<path d="M2241 1504 c0 -11 3 -14 6 -6 3 7 2 16 -1 19 -3 4 -6 -2 -5 -13z"/>
<path d="M1165 1490 c-3 -5 -1 -10 4 -10 6 0 11 5 11 10 0 6 -2 10 -4 10 -3 0
-8 -4 -11 -10z"/>
<path d="M1606 1493 c-12 -13 -6 -53 9 -53 9 0 15 9 15 24 0 26 -12 40 -24 29z
m11 -35 c-3 -8 -6 -5 -6 6 -1 11 2 17 5 13 3 -3 4 -12 1 -19z"/>
<path d="M1560 1465 c0 -16 6 -25 15 -25 9 0 15 9 15 25 0 16 -6 25 -15 25 -9
0 -15 -9 -15 -25z"/>
<path d="M1667 1484 c18 -8 4 -34 -15 -26 -14 5 -15 4 -2 -10 17 -18 25 -14
35 20 5 17 2 22 -12 21 -10 0 -13 -3 -6 -5z"/>
<path d="M1704 1475 c-8 -20 3 -48 16 -40 13 8 13 55 0 55 -6 0 -13 -7 -16
-15z m13 -17 c-3 -8 -6 -5 -6 6 -1 11 2 17 5 13 3 -3 4 -12 1 -19z"/>
<path d="M1740 1455 c0 -16 6 -25 15 -25 9 0 15 9 15 25 0 16 -6 25 -15 25 -9
0 -15 -9 -15 -25z m17 -7 c-3 -8 -6 -5 -6 6 -1 11 2 17 5 13 3 -3 4 -12 1 -19z"/>
<path d="M1781 1465 c0 -11 4 -27 9 -35 9 -13 10 -13 9 0 0 8 -4 24 -9 35 -9
20 -9 20 -9 0z"/>
<path d="M1806 1455 c9 -49 17 -49 28 -1 6 25 5 28 -7 17 -12 -9 -16 -9 -21 1
-3 7 -3 0 0 -17z"/>
<path d="M2235 1470 c-3 -5 -1 -10 4 -10 6 0 11 5 11 10 0 6 -2 10 -4 10 -3 0
-8 -4 -11 -10z"/>
<path d="M2296 1461 c-4 -7 -5 -15 -2 -18 9 -9 19 4 14 18 -4 11 -6 11 -12 0z"/>
<path d="M798 1425 c2 -14 6 -25 8 -25 2 0 4 11 4 25 0 14 -4 25 -9 25 -4 0
-6 -11 -3 -25z"/>
<path d="M834 1425 c4 -38 16 -43 16 -7 0 18 -4 32 -9 32 -5 0 -8 -11 -7 -25z"/>
<path d="M1120 1429 c0 -5 5 -9 10 -9 7 0 7 -6 0 -20 -6 -11 -7 -20 -2 -20 5
0 14 11 20 24 9 20 8 25 -9 29 -10 3 -19 1 -19 -4z"/>
<path d="M2238 1318 c1 -67 5 -124 7 -127 3 -2 5 53 5 122 0 70 -3 127 -7 127
-5 0 -7 -55 -5 -122z"/>
<path d="M2279 1420 c-6 -49 -3 -278 4 -291 6 -10 4 -26 -7 -47 -18 -35 -19
-42 -8 -42 5 0 14 18 21 41 7 23 15 48 18 58 4 13 3 14 -5 1 -8 -10 -10 -1 -9
38 1 28 4 52 7 52 3 0 5 30 5 68 -1 47 -4 66 -13 65 -14 -3 -16 33 -2 42 6 3
10 10 10 16 0 12 -20 12 -21 -1z"/>
<path d="M1500 1399 c0 -5 6 -7 13 -3 10 6 10 4 0 -7 -21 -22 -15 -26 37 -26
45 0 50 2 50 22 0 17 -6 22 -30 22 -18 0 -29 -5 -27 -11 3 -6 10 -10 16 -8 7
1 10 -2 7 -7 -11 -18 -43 -8 -38 11 3 12 -1 18 -12 18 -9 0 -16 -5 -16 -11z"/>
<path d="M1611 1400 c-1 -17 16 -47 22 -40 3 3 8 16 11 30 7 23 6 24 -8 7 -14
-18 -14 -18 -19 0 -3 12 -5 13 -6 3z"/>
<path d="M900 1390 c0 -5 5 -10 10 -10 6 0 10 5 10 10 0 6 -4 10 -10 10 -5 0
-10 -4 -10 -10z"/>
<path d="M1740 1385 c0 -8 4 -15 8 -15 5 0 9 7 9 15 0 8 -4 15 -9 15 -4 0 -8
-7 -8 -15z"/>
<path d="M1762 1373 c-14 -15 -17 -23 -8 -20 9 4 18 2 21 -4 9 -14 25 -1 25
21 0 30 -13 31 -38 3z"/>
<path d="M1660 1382 c0 -4 14 -8 30 -9 17 -1 30 1 30 5 0 4 -14 8 -30 9 -17 1
-30 -1 -30 -5z"/>
<path d="M1810 1365 c0 -16 2 -17 10 -5 8 12 10 12 16 -3 4 -10 16 -17 33 -16
14 0 20 3 13 6 -10 4 -10 8 -1 19 9 11 8 14 -4 14 -9 0 -18 -8 -20 -17 -4 -15
-5 -15 -6 2 -1 14 -8 21 -21 21 -14 0 -20 -7 -20 -21z"/>
<path d="M966 1372 c-9 -16 1 -47 17 -50 16 -3 32 31 22 48 -7 12 -32 13 -39
2z"/>
<path d="M614 1226 c2 -37 8 -71 11 -75 4 -3 5 24 3 61 -3 38 -8 71 -12 75 -4
5 -5 -23 -2 -61z"/>
<path d="M972 1205 c-7 -14 -12 -27 -12 -28 0 -1 11 -2 25 -2 20 0 24 4 19 20
-10 34 -20 37 -32 10z"/>
<path d="M1620 1181 c-84 -27 -131 -75 -155 -153 -21 -72 -19 -125 9 -183 29
-64 89 -118 149 -134 27 -8 47 -20 47 -27 0 -8 5 -14 10 -14 6 0 10 5 10 10 0
6 5 10 10 10 6 0 10 -7 10 -16 0 -8 -4 -13 -8 -10 -4 2 -14 0 -22 -5 -11 -6
-4 -9 23 -7 34 2 38 4 32 25 -3 13 -1 23 5 23 5 0 10 -13 10 -30 0 -16 4 -30
9 -30 5 0 7 9 4 20 -3 11 0 20 6 20 6 0 11 -9 11 -21 0 -11 5 -17 10 -14 6 4
8 10 5 15 -3 5 -1 11 5 15 6 4 10 -5 10 -22 1 -24 2 -26 11 -10 16 28 3 47
-32 47 -30 0 -29 1 22 28 41 21 64 42 94 87 37 56 40 65 40 130 -1 104 -50
181 -147 231 -36 19 -140 28 -178 15z m66 -16 c-11 -8 -34 -15 -50 -15 -17 0
-51 -12 -75 -25 -27 -16 -39 -19 -31 -10 19 23 65 45 113 55 60 11 64 11 43
-5z m84 -25 c0 -5 -4 -10 -9 -10 -6 0 -13 5 -16 10 -3 6 1 10 9 10 9 0 16 -4
16 -10z m81 -32 c40 -35 89 -122 59 -103 -5 3 -10 1 -10 -4 0 -6 7 -11 16 -11
14 0 15 -2 3 -17 -10 -12 -11 -15 -1 -9 9 6 11 2 7 -16 -3 -12 -6 -39 -8 -58
-5 -45 -23 -80 -43 -80 -8 0 -12 -4 -9 -10 19 -31 -55 -83 -138 -95 -41 -6
-47 -5 -47 10 0 13 -6 16 -23 11 -16 -4 -26 1 -35 14 -7 11 -19 20 -28 20 -9
0 -12 5 -8 13 6 8 3 8 -9 -2 -14 -11 -18 -10 -28 13 -7 14 -15 23 -19 21 -12
-7 -51 90 -50 126 0 64 3 74 26 115 30 51 91 85 165 91 43 4 59 1 72 -11 15
-16 18 -15 33 3 19 22 30 19 75 -21z m-236 -368 c3 -5 2 -10 -4 -10 -5 0 -13
5 -16 10 -3 6 -2 10 4 10 5 0 13 -4 16 -10z"/>
<path d="M1618 1108 c5 -5 16 -8 23 -6 8 3 3 7 -10 11 -17 4 -21 3 -13 -5z"/>
<path d="M1777 1107 c-9 -23 6 -35 41 -32 26 2 36 -3 53 -27 12 -16 24 -27 27
-23 8 8 -86 95 -102 95 -8 0 -16 -6 -19 -13z m33 -17 c8 -5 11 -10 5 -10 -5 0
-17 5 -25 10 -8 5 -10 10 -5 10 6 0 17 -5 25 -10z"/>
<path d="M1569 1079 l-24 -20 30 17 c39 24 40 24 28 24 -6 0 -21 -9 -34 -21z"/>
<path d="M1595 1065 c-17 -13 -25 -24 -19 -25 13 0 59 38 53 45 -3 2 -18 -7
-34 -20z"/>
<path d="M1646 1081 c-3 -4 6 -6 19 -3 14 2 25 6 25 8 0 8 -39 4 -44 -5z"/>
<path d="M1615 1030 c-3 -6 1 -7 9 -4 18 7 21 14 7 14 -6 0 -13 -4 -16 -10z"/>
<path d="M1620 996 c0 -2 7 -7 16 -10 8 -3 12 -2 9 4 -6 10 -25 14 -25 6z"/>
<path d="M1625 960 c-3 -6 1 -7 9 -4 18 7 21 14 7 14 -6 0 -13 -4 -16 -10z"/>
<path d="M1541 924 c0 -11 3 -14 6 -6 3 7 2 16 -1 19 -3 4 -6 -2 -5 -13z"/>
<path d="M1696 912 c7 -4 14 -16 17 -27 4 -15 5 -14 6 8 1 20 -4 27 -16 27
-12 0 -14 -3 -7 -8z"/>
<path d="M1675 890 c3 -5 11 -10 16 -10 6 0 7 5 4 10 -3 6 -11 10 -16 10 -6 0
-7 -4 -4 -10z"/>
<path d="M1780 860 c0 -5 7 -7 15 -4 8 4 15 8 15 10 0 2 -7 4 -15 4 -8 0 -15
-4 -15 -10z"/>
<path d="M1837 775 c-8 -8 -33 -20 -56 -27 -23 -7 -41 -16 -41 -20 0 -21 76 9
104 41 21 24 16 29 -7 6z"/>
<path d="M900 1170 c0 -5 5 -10 11 -10 5 0 7 5 4 10 -3 6 -8 10 -11 10 -2 0
-4 -4 -4 -10z"/>
<path d="M2229 1171 c9 -6 12 -25 9 -67 -3 -33 -1 -70 3 -84 4 -15 7 11 8 68
1 81 -1 92 -16 92 -14 0 -15 -2 -4 -9z"/>
<path d="M804 1155 c-9 -23 3 -45 25 -45 23 0 35 28 20 46 -15 18 -38 18 -45
-1z m36 -16 c0 -24 -23 -21 -28 4 -2 10 3 17 12 17 10 0 16 -9 16 -21z"/>
<path d="M1055 1160 c-3 -5 -1 -10 4 -10 6 0 11 5 11 10 0 6 -2 10 -4 10 -3 0
-8 -4 -11 -10z"/>
<path d="M1124 1135 c-9 -23 3 -45 26 -45 11 0 20 4 20 9 0 5 -8 8 -17 7 -10
0 -18 6 -18 14 0 9 7 14 19 12 11 -2 15 1 11 7 -9 16 -35 13 -41 -4z"/>
<path d="M901 1122 c-54 -27 -75 -64 -75 -127 1 -71 32 -117 98 -150 60 -30
97 -31 154 -5 34 15 47 29 63 66 62 139 -102 287 -240 216z m142 -24 c46 -33
66 -59 73 -95 10 -53 -4 -90 -43 -114 -86 -53 -199 6 -197 103 2 48 24 82 72
107 48 26 56 26 95 -1z"/>
<path d="M998 1103 c6 -2 11 -19 11 -36 -2 -31 -2 -31 -6 -4 -9 59 -21 23 -20
-58 2 -74 4 -85 20 -85 15 0 17 11 17 95 0 84 -2 95 -17 94 -11 0 -13 -3 -5
-6z m9 -130 c-3 -10 -5 -2 -5 17 0 19 2 27 5 18 2 -10 2 -26 0 -35z"/>
<path d="M616 1093 c-8 -53 -8 -201 2 -206 4 -3 7 51 7 119 0 68 -1 124 -1
124 -1 0 -4 -17 -8 -37z"/>
<path d="M785 1060 c4 -6 11 -8 16 -5 14 9 11 15 -7 15 -8 0 -12 -5 -9 -10z"/>
<path d="M1170 1040 c0 -5 5 -10 11 -10 5 0 7 5 4 10 -3 6 -8 10 -11 10 -2 0
-4 -4 -4 -10z"/>
<path d="M730 995 c0 -14 5 -25 11 -25 5 0 7 5 3 12 -4 7 -3 8 4 4 14 -8 15
-4 6 18 -9 25 -24 19 -24 -9z"/>
<path d="M771 996 c-6 -16 -9 -31 -6 -34 3 -3 5 1 5 9 0 12 2 12 10 -1 13 -21
17 -10 10 25 l-7 30 -12 -29z"/>
<path d="M2265 1010 c3 -5 8 -10 11 -10 2 0 4 5 4 10 0 6 -5 10 -11 10 -5 0
-7 -4 -4 -10z"/>
<path d="M1180 960 c0 -26 3 -30 28 -29 16 1 20 3 10 6 -10 2 -18 9 -18 14 0
6 4 8 9 4 5 -3 12 -1 16 5 3 5 -2 10 -12 11 -16 0 -16 1 2 9 18 8 17 9 -7 9
-25 1 -28 -3 -28 -29z"/>
<path d="M2246 978 c3 -4 9 -8 15 -8 5 0 9 4 9 8 0 5 -7 9 -15 9 -8 0 -12 -4
-9 -9z"/>
<path d="M790 910 c0 -5 5 -10 10 -10 6 0 10 5 10 10 0 6 -4 10 -10 10 -5 0
-10 -4 -10 -10z"/>
<path d="M2218 913 c7 -3 16 -2 19 1 4 3 -2 6 -13 5 -11 0 -14 -3 -6 -6z"/>
<path d="M1170 890 c0 -5 5 -10 11 -10 5 0 7 5 4 10 -3 6 -8 10 -11 10 -2 0
-4 -4 -4 -10z"/>
<path d="M2210 880 c8 -5 20 -10 25 -10 6 0 3 5 -5 10 -8 5 -19 10 -25 10 -5
0 -3 -5 5 -10z"/>
<path d="M623 810 c0 -36 2 -50 4 -32 2 17 2 47 0 65 -2 17 -4 3 -4 -33z"/>
<path d="M802 830 c0 -19 2 -27 5 -17 5 18 5 18 25 0 21 -18 21 -18 9 5 -7 12
-9 28 -5 35 6 9 3 8 -8 -1 -13 -10 -17 -10 -21 0 -3 7 -5 -3 -5 -22z"/>
<path d="M1961 845 c0 -12 -5 -26 -11 -33 -5 -7 -3 -6 6 2 9 7 14 22 11 32 -4
17 -5 17 -6 -1z"/>
<path d="M2213 843 c9 -2 25 -2 35 0 9 3 1 5 -18 5 -19 0 -27 -2 -17 -5z"/>
<path d="M1124 826 c-8 -21 13 -46 38 -46 15 0 18 6 15 28 -4 31 -43 44 -53
18z m31 -6 c-3 -5 -1 -10 5 -10 6 0 8 -5 5 -10 -4 -6 -11 -8 -16 -5 -12 8 -11
35 2 35 5 0 7 -4 4 -10z"/>
<path d="M905 800 c-3 -5 1 -10 10 -10 9 0 13 5 10 10 -3 6 -8 10 -10 10 -2 0
-7 -4 -10 -10z"/>
<path d="M2278 803 c7 -3 16 -2 19 1 4 3 -2 6 -13 5 -11 0 -14 -3 -6 -6z"/>
<path d="M1060 790 c0 -5 5 -10 10 -10 6 0 10 5 10 10 0 6 -4 10 -10 10 -5 0
-10 -4 -10 -10z"/>
<path d="M992 760 c0 -19 2 -27 5 -17 2 9 2 25 0 35 -3 9 -5 1 -5 -18z"/>
<path d="M1930 774 c0 -8 5 -12 10 -9 6 4 8 11 5 16 -9 14 -15 11 -15 -7z"/>
<path d="M2208 773 c7 -3 16 -2 19 1 4 3 -2 6 -13 5 -11 0 -14 -3 -6 -6z"/>
<path d="M2195 740 c4 -6 11 -8 16 -5 14 9 11 15 -7 15 -8 0 -12 -5 -9 -10z"/>
<path d="M621 724 c0 -11 3 -14 6 -6 3 7 2 16 -1 19 -3 4 -6 -2 -5 -13z"/>
<path d="M1875 718 l-20 -21 22 12 c23 12 40 31 26 30 -4 0 -17 -10 -28 -21z"/>
<path d="M2260 732 c0 -4 9 -8 20 -9 11 -1 20 2 20 5 0 4 -9 8 -20 9 -11 1
-20 -2 -20 -5z"/>
<path d="M1562 678 c2 -19 10 -23 46 -26 40 -3 43 -2 40 20 -2 19 -10 23 -46
26 -40 3 -43 2 -40 -20z m48 3 l-25 -8 25 -5 c25 -5 25 -5 -2 -7 -19 -1 -28 4
-28 14 0 10 9 15 28 14 l27 -1 -25 -7z"/>
<path d="M2218 693 c7 -3 16 -2 19 1 4 3 -2 6 -13 5 -11 0 -14 -3 -6 -6z"/>
<path d="M2260 696 c0 -2 9 -6 20 -9 11 -3 20 -1 20 4 0 5 -9 9 -20 9 -11 0
-20 -2 -20 -4z"/>
<path d="M2208 657 c-7 -46 3 -77 25 -77 20 0 20 0 1 15 -16 13 -17 16 -4 25
10 6 11 10 3 10 -16 0 -17 27 -1 32 8 3 6 7 -4 11 -12 4 -18 0 -20 -16z"/>
<path d="M724 535 c0 -49 1 -71 3 -48 2 23 2 64 0 90 -2 26 -3 8 -3 -42z"/>
<path d="M1197 569 c7 -7 15 -10 18 -7 3 3 -2 9 -12 12 -14 6 -15 5 -6 -5z"/>
<path d="M2170 550 c0 -5 5 -10 11 -10 5 0 7 5 4 10 -3 6 -8 10 -11 10 -2 0
-4 -4 -4 -10z"/>
<path d="M1145 541 c-9 -15 13 -23 32 -11 15 9 14 10 -6 4 -16 -4 -21 -3 -17
5 4 6 5 11 2 11 -3 0 -7 -4 -11 -9z"/>
<path d="M1388 543 c7 -3 16 -2 19 1 4 3 -2 6 -13 5 -11 0 -14 -3 -6 -6z"/>
<path d="M1456 541 c-3 -4 13 -8 36 -9 47 -2 48 2 1 11 -18 4 -34 3 -37 -2z"/>
<path d="M1105 530 c-3 -5 -1 -10 4 -10 6 0 11 5 11 10 0 6 -2 10 -4 10 -3 0
-8 -4 -11 -10z"/>
<path d="M1565 530 c11 -5 29 -8 40 -8 16 0 15 2 -5 8 -34 11 -60 11 -35 0z"/>
<path d="M1985 530 c-3 -6 1 -7 9 -4 18 7 21 14 7 14 -6 0 -13 -4 -16 -10z"/>
<path d="M1720 518 c0 -5 26 -7 58 -7 61 1 55 6 -15 11 -24 2 -43 0 -43 -4z"/>
<path d="M1854 518 c8 -4 25 -4 38 1 20 8 18 9 -15 8 -24 -1 -32 -4 -23 -9z"/>
<path d="M950 488 c-11 -12 -20 -33 -20 -48 0 -31 25 -70 46 -70 17 0 19 17 2
23 -7 2 -1 4 15 4 15 0 27 -3 27 -8 0 -9 60 7 73 20 13 13 2 52 -23 79 -28 30
-91 30 -120 0z m90 -8 c13 -11 27 -20 33 -20 5 0 4 -7 -3 -15 -17 -21 -36 -19
-61 8 l-23 22 18 -29 c16 -24 16 -28 3 -23 -9 3 -18 1 -21 -6 -3 -9 -8 -8 -15
3 -10 13 -11 13 -11 0 0 -13 -1 -13 -10 0 -6 9 -5 17 2 21 6 4 7 13 2 20 -6
12 -5 12 8 1 14 -11 16 -10 11 8 -4 16 -2 19 11 14 9 -3 16 -1 16 5 0 17 14
13 40 -9z"/>
<path d="M1265 492 c-45 -9 -78 -69 -54 -98 6 -8 8 -14 5 -14 -4 0 -1 -6 6
-13 14 -15 67 -9 106 12 27 14 39 8 26 -12 -5 -7 -1 -4 9 6 24 26 21 50 -8 85
-25 30 -54 41 -90 34z m65 -36 c8 -6 15 -21 16 -34 0 -16 -3 -19 -10 -12 -12
12 -29 13 -22 1 4 -5 -3 -7 -14 -4 -11 3 -17 10 -13 16 3 6 1 7 -5 3 -6 -4 -9
-13 -5 -21 4 -11 1 -13 -11 -9 -10 4 -16 1 -16 -7 0 -22 -23 8 -25 32 -2 21
-1 21 12 4 16 -23 17 -12 2 17 -10 19 -9 20 10 15 13 -3 21 0 21 8 0 15 35 9
60 -9z"/>
<path d="M1388 493 c7 -3 16 -2 19 1 4 3 -2 6 -13 5 -11 0 -14 -3 -6 -6z"/>
<path d="M1640 486 c0 -2 7 -9 15 -16 9 -7 15 -8 15 -2 0 5 -7 12 -15 16 -8 3
-15 4 -15 2z"/>
<path d="M1693 483 c9 -2 25 -2 35 0 9 3 1 5 -18 5 -19 0 -27 -2 -17 -5z"/>
<path d="M722 383 l-2 -61 58 -6 c31 -3 127 -11 212 -16 85 -6 245 -17 354
-25 110 -8 202 -12 205 -10 10 10 -7 14 -82 16 -42 2 -77 6 -77 9 0 3 -27 5
-61 5 -33 0 -63 3 -65 6 -2 4 -24 4 -50 1 -33 -3 -49 -1 -55 9 -7 12 -9 12 -9
0 0 -7 -6 -11 -14 -8 -8 3 -65 9 -128 12 -62 4 -129 8 -148 10 -19 2 -56 4
-82 4 l-47 1 -4 58 -3 57 -2 -62z"/>
<path d="M1568 300 c-4 -44 -4 -44 39 -30 25 9 29 15 25 40 -4 25 -9 30 -32
30 -25 0 -28 -4 -32 -40z"/>
<path d="M1688 296 c-3 -50 -2 -52 37 -34 18 8 25 19 25 40 0 17 -5 28 -14 28
-8 0 -21 3 -29 6 -12 4 -16 -5 -19 -40z"/>
<path d="M1808 288 c-3 -24 -4 -44 -2 -46 1 -2 16 4 33 13 24 12 31 22 31 45
0 26 -4 30 -29 30 -27 0 -29 -3 -33 -42z"/>
<path d="M1930 291 c0 -16 -3 -36 -6 -45 -5 -14 -3 -14 27 -2 27 11 35 21 37
45 3 29 1 31 -27 31 -28 0 -31 -3 -31 -29z"/>
<path d="M1640 260 c0 -5 7 -10 15 -10 8 0 15 5 15 10 0 6 -7 10 -15 10 -8 0
-15 -4 -15 -10z"/>
<path d="M1760 250 c0 -5 7 -10 15 -10 8 0 15 5 15 10 0 6 -7 10 -15 10 -8 0
-15 -4 -15 -10z"/>
<path d="M1880 250 c0 -6 7 -10 15 -10 8 0 15 2 15 4 0 2 -7 6 -15 10 -8 3
-15 1 -15 -4z"/>
</g>
</svg>
